<svg width="28" height="27" viewBox="0 0 28 27" fill="none" xmlns="http://www.w3.org/2000/svg">
<path d="M13.6507 9.84375C12.6702 9.84375 11.7298 10.229 11.0365 10.9146C10.3431 11.6003 9.95361 12.5303 9.95361 13.5C9.95361 14.4697 10.3431 15.3997 11.0365 16.0854C11.7298 16.771 12.6702 17.1562 13.6507 17.1562C14.6312 17.1562 15.5716 16.771 16.2649 16.0854C16.9583 15.3997 17.3478 14.4697 17.3478 13.5C17.3478 12.5303 16.9583 11.6003 16.2649 10.9146C15.5716 10.229 14.6312 9.84375 13.6507 9.84375Z" fill="white"/>
<path fill-rule="evenodd" clip-rule="evenodd" d="M7.70136 3.46719C11.6556 3.03372 15.6461 3.03372 19.6003 3.46719C21.7605 3.70569 23.5022 5.38756 23.7558 7.53181C24.2248 11.497 24.2248 15.5028 23.7558 19.4681C23.5022 21.6123 21.7605 23.2942 19.6014 23.5338C15.6469 23.9674 11.6559 23.9674 7.70136 23.5338C5.54112 23.2942 3.79951 21.6123 3.54583 19.4692C3.07685 15.5036 3.07685 11.4974 3.54583 7.53181C3.79951 5.38756 5.54112 3.70569 7.70136 3.46719ZM19.3387 6.74994C19.037 6.74994 18.7476 6.86846 18.5343 7.07944C18.3209 7.29042 18.2011 7.57657 18.2011 7.87494C18.2011 8.1733 18.3209 8.45945 18.5343 8.67043C18.7476 8.88141 19.037 8.99994 19.3387 8.99994C19.6404 8.99994 19.9297 8.88141 20.143 8.67043C20.3564 8.45945 20.4762 8.1733 20.4762 7.87494C20.4762 7.57657 20.3564 7.29042 20.143 7.07944C19.9297 6.86846 19.6404 6.74994 19.3387 6.74994ZM8.24739 13.4999C8.24739 12.0827 8.81668 10.7235 9.83002 9.72133C10.8434 8.71919 12.2178 8.15619 13.6508 8.15619C15.0839 8.15619 16.4583 8.71919 17.4716 9.72133C18.485 10.7235 19.0543 12.0827 19.0543 13.4999C19.0543 14.9172 18.485 16.2764 17.4716 17.2785C16.4583 18.2807 15.0839 18.8437 13.6508 18.8437C12.2178 18.8437 10.8434 18.2807 9.83002 17.2785C8.81668 16.2764 8.24739 14.9172 8.24739 13.4999Z" fill="white"/>
</svg>
