<svg width="206" height="45" viewBox="0 0 206 45" fill="none" xmlns="http://www.w3.org/2000/svg">
<path d="M41.984 42.016H37.792L37.12 44H34.256L38.32 32.768H41.488L45.552 44H42.656L41.984 42.016ZM41.28 39.904L39.888 35.792L38.512 39.904H41.28ZM49.5249 36.56C49.8449 36.0693 50.2449 35.6853 50.7249 35.408C51.2049 35.12 51.7382 34.976 52.3249 34.976V37.872H51.5729C50.8902 37.872 50.3782 38.0213 50.0369 38.32C49.6955 38.608 49.5249 39.12 49.5249 39.856V44H46.7889V35.072H49.5249V36.56ZM53.0886 39.536C53.0886 38.608 53.2753 37.7973 53.6486 37.104C54.0326 36.4107 54.5606 35.8773 55.2326 35.504C55.9153 35.1307 56.694 34.944 57.5686 34.944C58.6886 34.944 59.622 35.2373 60.3686 35.824C61.126 36.4107 61.622 37.2373 61.8566 38.304H58.9446C58.6993 37.6213 58.2246 37.28 57.5206 37.28C57.0193 37.28 56.6193 37.4773 56.3206 37.872C56.022 38.256 55.8726 38.8107 55.8726 39.536C55.8726 40.2613 56.022 40.8213 56.3206 41.216C56.6193 41.6 57.0193 41.792 57.5206 41.792C58.2246 41.792 58.6993 41.4507 58.9446 40.768H61.8566C61.622 41.8133 61.126 42.6347 60.3686 43.232C59.6113 43.8293 58.678 44.128 57.5686 44.128C56.694 44.128 55.9153 43.9413 55.2326 43.568C54.5606 43.1947 54.0326 42.6613 53.6486 41.968C53.2753 41.2747 53.0886 40.464 53.0886 39.536ZM68.8081 34.976C69.8321 34.976 70.6535 35.3173 71.2721 36C71.8908 36.672 72.2001 37.6 72.2001 38.784V44H69.4801V39.152C69.4801 38.5547 69.3255 38.0907 69.0161 37.76C68.7068 37.4293 68.2908 37.264 67.7681 37.264C67.2455 37.264 66.8295 37.4293 66.5201 37.76C66.2108 38.0907 66.0561 38.5547 66.0561 39.152V44H63.3201V32.16H66.0561V36.272C66.3335 35.8773 66.7121 35.5627 67.1921 35.328C67.6721 35.0933 68.2108 34.976 68.8081 34.976ZM85.7494 44.28C83.696 44.28 81.856 43.9467 80.2294 43.28C78.6027 42.6133 77.296 41.6267 76.3094 40.32C75.3494 39.0133 74.8427 37.44 74.7894 35.6H82.0694C82.176 36.64 82.536 37.44 83.1494 38C83.7627 38.5333 84.5627 38.8 85.5494 38.8C86.5627 38.8 87.3627 38.5733 87.9494 38.12C88.536 37.64 88.8294 36.9867 88.8294 36.16C88.8294 35.4667 88.5894 34.8933 88.1094 34.44C87.656 33.9867 87.0827 33.6133 86.3894 33.32C85.7227 33.0267 84.7627 32.6933 83.5094 32.32C81.696 31.76 80.216 31.2 79.0694 30.64C77.9227 30.08 76.936 29.2533 76.1094 28.16C75.2827 27.0667 74.8694 25.64 74.8694 23.88C74.8694 21.2667 75.816 19.2267 77.7094 17.76C79.6027 16.2667 82.0694 15.52 85.1094 15.52C88.2027 15.52 90.696 16.2667 92.5894 17.76C94.4827 19.2267 95.496 21.28 95.6294 23.92H88.2294C88.176 23.0133 87.8427 22.3067 87.2294 21.8C86.616 21.2667 85.8294 21 84.8694 21C84.0427 21 83.376 21.2267 82.8694 21.68C82.3627 22.1067 82.1094 22.7333 82.1094 23.56C82.1094 24.4667 82.536 25.1733 83.3894 25.68C84.2427 26.1867 85.576 26.7333 87.3894 27.32C89.2027 27.9333 90.6694 28.52 91.7894 29.08C92.936 29.64 93.9227 30.4533 94.7494 31.52C95.576 32.5867 95.9894 33.96 95.9894 35.64C95.9894 37.24 95.576 38.6933 94.7494 40C93.9494 41.3067 92.776 42.3467 91.2294 43.12C89.6827 43.8933 87.856 44.28 85.7494 44.28ZM112.639 38.2V44H109.159C106.679 44 104.745 43.4 103.359 42.2C101.972 40.9733 101.279 38.9867 101.279 36.24V27.36H98.5588V21.68H101.279V16.24H108.119V21.68H112.599V27.36H108.119V36.32C108.119 36.9867 108.279 37.4667 108.599 37.76C108.919 38.0533 109.452 38.2 110.199 38.2H112.639ZM138.489 21.68V44H131.649V40.96C130.955 41.9467 130.009 42.7467 128.809 43.36C127.635 43.9467 126.329 44.24 124.889 44.24C123.182 44.24 121.675 43.8667 120.369 43.12C119.062 42.3467 118.049 41.24 117.329 39.8C116.609 38.36 116.249 36.6667 116.249 34.72V21.68H123.049V33.8C123.049 35.2933 123.435 36.4533 124.209 37.28C124.982 38.1067 126.022 38.52 127.329 38.52C128.662 38.52 129.715 38.1067 130.489 37.28C131.262 36.4533 131.649 35.2933 131.649 33.8V21.68H138.489ZM142.042 32.8C142.042 30.5067 142.469 28.4933 143.322 26.76C144.202 25.0267 145.389 23.6933 146.882 22.76C148.375 21.8267 150.042 21.36 151.882 21.36C153.349 21.36 154.682 21.6667 155.882 22.28C157.109 22.8933 158.069 23.72 158.762 24.76V14.4H165.602V44H158.762V40.8C158.122 41.8667 157.202 42.72 156.002 43.36C154.829 44 153.455 44.32 151.882 44.32C150.042 44.32 148.375 43.8533 146.882 42.92C145.389 41.96 144.202 40.6133 143.322 38.88C142.469 37.12 142.042 35.0933 142.042 32.8ZM158.762 32.84C158.762 31.1333 158.282 29.7867 157.322 28.8C156.389 27.8133 155.242 27.32 153.882 27.32C152.522 27.32 151.362 27.8133 150.402 28.8C149.469 29.76 149.002 31.0933 149.002 32.8C149.002 34.5067 149.469 35.8667 150.402 36.88C151.362 37.8667 152.522 38.36 153.882 38.36C155.242 38.36 156.389 37.8667 157.322 36.88C158.282 35.8933 158.762 34.5467 158.762 32.84ZM173.99 19.36C172.79 19.36 171.804 19.0133 171.03 18.32C170.284 17.6 169.91 16.72 169.91 15.68C169.91 14.6133 170.284 13.7333 171.03 13.04C171.804 12.32 172.79 11.96 173.99 11.96C175.164 11.96 176.124 12.32 176.87 13.04C177.644 13.7333 178.03 14.6133 178.03 15.68C178.03 16.72 177.644 17.6 176.87 18.32C176.124 19.0133 175.164 19.36 173.99 19.36ZM177.39 21.68V44H170.55V21.68H177.39ZM192.507 44.32C190.321 44.32 188.347 43.8533 186.587 42.92C184.854 41.9867 183.481 40.6533 182.467 38.92C181.481 37.1867 180.987 35.16 180.987 32.84C180.987 30.5467 181.494 28.5333 182.507 26.8C183.521 25.04 184.907 23.6933 186.667 22.76C188.427 21.8267 190.401 21.36 192.587 21.36C194.774 21.36 196.747 21.8267 198.507 22.76C200.267 23.6933 201.654 25.04 202.667 26.8C203.681 28.5333 204.187 30.5467 204.187 32.84C204.187 35.1333 203.667 37.16 202.627 38.92C201.614 40.6533 200.214 41.9867 198.427 42.92C196.667 43.8533 194.694 44.32 192.507 44.32ZM192.507 38.4C193.814 38.4 194.921 37.92 195.827 36.96C196.761 36 197.227 34.6267 197.227 32.84C197.227 31.0533 196.774 29.68 195.867 28.72C194.987 27.76 193.894 27.28 192.587 27.28C191.254 27.28 190.147 27.76 189.267 28.72C188.387 29.6533 187.947 31.0267 187.947 32.84C187.947 34.6267 188.374 36 189.227 36.96C190.107 37.92 191.201 38.4 192.507 38.4Z" fill="white"/>
<path d="M14.8193 34.3779V36.1724C14.8193 36.5924 14.4804 36.9328 14.0622 36.9328C13.644 36.9328 13.3051 36.5924 13.3051 36.1724V34.3779C13.3051 33.9579 13.644 33.6176 14.0622 33.6176C14.4804 33.6176 14.8193 33.9579 14.8193 34.3779ZM14.0622 22.7592C13.644 22.7592 13.3051 23.0996 13.3051 23.5196V25.314C13.3051 25.734 13.644 26.0744 14.0622 26.0744C14.4804 26.0744 14.8193 25.734 14.8193 25.314V23.5196C14.8193 23.0996 14.4804 22.7592 14.0622 22.7592ZM14.0622 28.1884C13.644 28.1884 13.3051 28.5288 13.3051 28.9488V30.7432C13.3051 31.1632 13.644 31.5036 14.0622 31.5036C14.4804 31.5036 14.8193 31.1632 14.8193 30.7432V28.9488C14.8193 28.5289 14.4804 28.1884 14.0622 28.1884ZM17.9379 26.0744C18.3561 26.0744 18.695 25.734 18.695 25.314V23.5196C18.695 23.0996 18.3561 22.7592 17.9379 22.7592C17.5197 22.7592 17.1808 23.0996 17.1808 23.5196V25.314C17.1808 25.734 17.5197 26.0744 17.9379 26.0744ZM17.9379 36.9327C18.3561 36.9327 18.695 36.5923 18.695 36.1724V34.3778C18.695 33.9579 18.3561 33.6175 17.9379 33.6175C17.5197 33.6175 17.1808 33.9579 17.1808 34.3778V36.1724C17.1808 36.5923 17.5197 36.9327 17.9379 36.9327ZM32 43.2396C32 43.6595 31.6611 43.9999 31.2429 43.9999H26.5067C26.5029 43.9999 26.4992 44 26.4954 44C26.4916 44 26.4878 44 26.484 43.9999H21.7627C21.7551 44 21.7475 44 21.74 43.9999H10.2599C10.2523 44 10.2447 44 10.2372 43.9999H5.51598C5.50841 44 5.50084 44 5.49327 43.9999H0.757112C0.338934 43.9999 0 43.6595 0 43.2396C0 42.8196 0.338934 42.4792 0.757112 42.4792H4.74759V23.4144C4.74759 23.1379 4.89691 22.8833 5.13768 22.7493C5.37835 22.6153 5.67262 22.6231 5.90598 22.7696L9.49149 25.0202V12.4606C9.49149 12.1646 9.6626 11.8955 9.92994 11.7709C10.1971 11.6462 10.5123 11.6889 10.7375 11.8801L15.1858 15.6584L20.9942 12.0124V7.76036C20.9942 7.34039 21.3331 7 21.7513 7C22.1695 7 22.5084 7.34039 22.5084 7.76036V12.4181C22.5085 12.4233 22.5086 12.4285 22.5086 12.4337V22.9929L26.8967 25.7472C27.1181 25.8862 27.2526 26.1299 27.2526 26.392V42.4792H31.243C31.6611 42.4792 32 42.8196 32 43.2396ZM9.4914 26.8134L6.26173 24.7861V42.4792H9.4914V26.8134ZM11.0056 18.2822L13.8374 16.5047L11.0056 14.0996V18.2822ZM20.9944 13.8056L15.5334 17.2334C15.5245 17.2393 15.5153 17.2451 15.5062 17.2506L11.0056 20.0756V26.3806C11.0057 26.3887 11.0057 26.3968 11.0056 26.405V42.4792H20.9943V23.4259C20.9942 23.4177 20.9942 23.4095 20.9943 23.4013V13.8056H20.9944ZM25.7383 26.8134L22.5086 24.7861V42.4792H25.7383V26.8134ZM17.9379 31.5036C18.3561 31.5036 18.695 31.1632 18.695 30.7432V28.9488C18.695 28.5288 18.3561 28.1884 17.9379 28.1884C17.5197 28.1884 17.1808 28.5288 17.1808 28.9488V30.7432C17.1808 31.1632 17.5197 31.5036 17.9379 31.5036Z" fill="white"/>
</svg>
