<svg width="111" height="111" viewBox="0 0 111 111" fill="none" xmlns="http://www.w3.org/2000/svg">
<path d="M9.25 101.75C15.0312 97.1851 19.7487 92.6156 27.2875 91.5749C33.8139 91.5734 40.0968 94.0535 44.8625 98.5124C47.3357 100.245 50.1954 101.346 53.1919 101.719C56.1884 102.092 59.2306 101.725 62.053 100.652C64.8755 99.5786 67.3922 97.8306 69.3836 95.5607C71.375 93.2908 72.7805 90.5679 73.4774 87.6298C76.4781 88.1648 79.569 87.8417 82.3942 86.6976C85.2194 85.5536 87.6642 83.6351 89.4473 81.163C91.2303 78.6908 92.2792 75.7655 92.4732 72.7236C92.6671 69.6817 91.9983 66.6469 90.5436 63.9683C93.1949 63.1118 95.5803 61.5854 97.4688 59.5368C99.3574 57.4883 100.685 54.9869 101.324 52.2749C101.962 49.5628 101.89 46.7318 101.114 44.0558C100.338 41.3799 98.8843 38.9495 96.8938 36.9999C98.397 35.4967 99.5894 33.7121 100.403 31.7481C101.216 29.784 101.635 27.6789 101.635 25.5531C101.635 23.4272 101.216 21.3221 100.403 19.3581C99.5894 17.394 98.397 15.6094 96.8938 14.1062C95.3905 12.603 93.6059 11.4105 91.6419 10.597C89.6778 9.78346 87.5728 9.36474 85.4469 9.36474C81.1535 9.36474 77.0359 11.0703 74 14.1062C72.0504 12.1156 69.6201 10.662 66.9441 9.88588C64.2681 9.10979 61.4371 9.03755 58.7251 9.67615C56.013 10.3148 53.5117 11.6426 51.4631 13.5311C49.4146 15.4197 47.8882 17.805 47.0316 20.4563C44.3531 19.0017 41.3182 18.3328 38.2763 18.5268C35.2344 18.7207 32.3091 19.7696 29.837 21.5527C27.3648 23.3357 25.4464 25.7805 24.3023 28.6058C23.1583 31.431 22.8352 34.5218 23.3701 37.5226C20.4576 38.2319 17.761 39.6383 15.5125 41.6208C13.264 43.6033 11.531 46.1026 10.4625 48.9034C9.39409 51.7042 9.02225 54.7227 9.37903 57.699C9.7358 60.6754 10.8105 63.5205 12.5106 65.9894C16.1829 71.3174 20.3916 77.2929 19.425 83.7124C18.1577 91.3113 13.9397 95.8854 9.25 101.75ZM9.25 101.75L78.625 32.3749" stroke="#05A202" stroke-width="2" stroke-linecap="round" stroke-linejoin="round"/>
</svg>
