<svg width="113" height="31" viewBox="0 0 113 31" fill="none" xmlns="http://www.w3.org/2000/svg">
<mask id="mask0_17_1323" style="mask-type:luminance" maskUnits="userSpaceOnUse" x="0" y="2" width="20" height="25">
<path d="M0 2.88623H19.5841V26.4886H0V2.88623Z" fill="white"/>
</mask>
<g mask="url(#mask0_17_1323)">
<path d="M0.537544 3.64797C1.29877 3.64797 2.60151 4.11697 2.60151 6.10521V23.2578C2.60151 25.214 1.36941 25.7151 0.223633 25.7511V25.9997H7.29447V25.7511C6.3292 25.7151 4.88128 25.3703 4.88128 23.2578V14.6114C6.36451 14.6114 8.44025 14.7076 10.7514 18.6199L13.4 23.4462C13.4354 23.4783 13.9298 24.268 14.2084 24.6768C14.6674 25.3703 14.9146 25.6509 15.1619 25.9997H19.2035V25.7511C18.5325 25.687 17.4416 25.6509 15.4091 22.1234L13.4 18.3032C12.4465 16.6597 11.3675 15.2086 9.7312 14.3909V14.3308C12.9723 13.7295 14.3889 11.4446 14.3889 9.08357C14.3889 6.87486 13.1214 3.3313 7.91052 3.3313H0.223633V3.64797L0.537544 3.64797ZM4.88128 14.0141V4.05283C5.19519 3.9887 5.56404 3.92857 6.27426 3.92857C10.7161 3.92857 11.8305 7.03119 11.8305 9.26796C11.8305 12.2984 10.2805 14.0141 6.1487 14.0141H4.88128Z" fill="black"/>
</g>
<path d="M29.3978 3.58357C28.2521 3.58357 27.016 4.11671 27.016 6.04082V23.2576C27.016 25.2138 28.409 25.7509 29.3978 25.7509V25.9993H22.3584V25.7509C23.4375 25.7509 24.7245 25.2138 24.7245 23.2576V6.04082C24.7245 3.9283 23.3119 3.58357 22.3584 3.58357V3.33105H29.3978V3.58357Z" fill="black"/>
<path d="M41.2049 14.6954C44.9639 14.6954 47.3771 16.5715 47.3771 20.0068C47.3771 20.7965 47.1889 22.0912 46.4825 23.2216C45.7723 24.3641 44.4499 25.3061 42.123 25.3061C38.9133 25.3061 38.9133 23.7628 38.9133 22.5963V14.6954H41.2049ZM42.5625 25.9996C42.9314 25.9996 45.4583 25.9705 47.0083 25.0856C48.209 24.3922 49.9394 22.7526 49.9394 20.103C49.9394 18.4314 49.2528 17.0164 48.1187 15.9421C46.7611 14.6554 44.9875 14.3587 43.1472 14.1904V14.1261C45.8625 13.4006 47.9304 11.6728 47.9304 8.77065C47.9304 5.90055 45.4034 3.33105 41.507 3.33105H34.2556V3.58352H34.5381C35.7938 3.58352 36.6374 4.49351 36.6374 6.13301V23.2576C36.6374 25.0574 35.5583 25.7509 34.5695 25.7509H34.2556V25.9993L42.5625 25.9996ZM38.9133 14.002V4.36942C39.3175 4.24114 39.9688 4.02068 40.8909 4.02068C43.516 4.02068 45.3681 6.43788 45.3681 9.2158C45.3681 12.146 43.3591 13.4007 42.9 13.6252C42.4723 13.8416 41.8562 14.002 40.373 14.002H38.9133Z" fill="black"/>
<path d="M59.4467 13.9015L62.0051 5.90846H62.0718L64.8459 13.9015H59.4467ZM59.7019 3.50336C60.467 3.50336 61.1851 3.78784 61.5422 4.49348L55.6642 22.54C55.0207 24.5282 54.2477 25.5985 52.6978 25.7267V25.9793H58.1755V25.7267C57.2455 25.7267 56.3783 25.5345 56.3783 24.1474C56.3783 23.6784 56.5942 22.7925 56.7394 22.3195L59.1643 14.7594H65.1482L67.9185 22.7605C67.9185 22.7925 67.9538 22.8887 67.9774 22.9489C68.2012 23.6464 68.2559 24.1475 68.2559 24.3399C68.2559 25.819 66.8983 25.7269 65.9448 25.7269V25.9794H73.1961V25.7269C72.117 25.6306 71.2852 25.5707 70.1983 22.4479L63.5629 3.29102H59.7019L59.7019 3.50336Z" fill="black"/>
<path d="M97.1476 23.1575H94.6795C94.4206 23.1575 94.2322 23.3661 94.2322 23.6145C94.2322 23.8751 94.4204 24.0795 94.6795 24.0795H97.1476C97.4065 24.0795 97.5989 23.875 97.5989 23.6145C97.5989 23.3661 97.4067 23.1575 97.1476 23.1575Z" fill="black"/>
<path d="M97.5204 25.4784H94.3107V24.7167H97.5204V25.4784ZM98.0148 25.0895V25.9915H93.7927V24.1917H98.0148V25.1056H97.6107V24.6206H94.2087V25.5705H97.6107V25.0855L98.0148 25.0895Z" fill="black"/>
<path d="M98.6543 1.62757C98.5641 1.61012 98.4738 1.59559 98.3955 1.57959L98.2073 2.52563C98.2936 2.54018 98.3722 2.55471 98.4505 2.56576L98.6543 1.62757Z" fill="black"/>
<path d="M98.2933 1.56336C98.0148 1.51914 97.7439 1.48309 97.4653 1.44702L97.3281 2.42511C97.6224 2.44838 97.8892 2.48122 98.1168 2.51322L98.2933 1.56336Z" fill="black"/>
<mask id="mask1_17_1323" style="mask-type:luminance" maskUnits="userSpaceOnUse" x="94" y="0" width="3" height="2">
<path d="M94.9226 0H96.9316V1.85997H94.9226V0Z" fill="white"/>
</mask>
<g mask="url(#mask1_17_1323)">
<path d="M95.9822 1.27073C96.1509 1.27073 96.3078 1.27473 96.4648 1.27873L96.5197 0H95.4446L95.4996 1.27472C95.6565 1.27072 95.8134 1.27073 95.9822 1.27073Z" fill="black"/>
</g>
<path d="M96.037 2.36092C96.2842 2.36092 96.5314 2.36968 96.7786 2.38423L96.857 1.39406C96.5862 1.37952 96.3076 1.36499 96.0369 1.36499L96.037 2.36092Z" fill="black"/>
<mask id="mask2_17_1323" style="mask-type:luminance" maskUnits="userSpaceOnUse" x="96" y="0" width="3" height="2">
<path d="M96.9316 0H98.9407V1.85997H96.9316V0Z" fill="white"/>
</mask>
<g mask="url(#mask2_17_1323)">
<path d="M98.6778 1.5353L98.9328 0.380841C98.8229 0.348772 98.1363 0.228516 98.1363 0.228516L97.9126 1.40703C98.1598 1.44311 98.4188 1.48319 98.6778 1.5353Z" fill="black"/>
</g>
<path d="M97.3632 3.49935L97.4968 2.53733C97.2183 2.50824 96.9004 2.48524 96.5865 2.46924L96.5315 3.49944L97.3632 3.49935Z" fill="black"/>
<path d="M94.6363 2.42511L94.499 1.44702C94.1969 1.47611 93.9262 1.51919 93.6711 1.5634L93.8477 2.5134C94.0752 2.4814 94.342 2.44897 94.6363 2.42511Z" fill="black"/>
<path d="M95.939 1.36694C95.633 1.36694 95.3662 1.37861 95.1072 1.39025L95.1855 2.38436C95.4326 2.36691 95.6799 2.36106 95.9388 2.36106L95.939 1.36694Z" fill="black"/>
<path d="M93.3101 1.6275L93.5259 2.56552C93.5925 2.55388 93.6711 2.54226 93.7614 2.52539L93.5692 1.57935C93.4909 1.59389 93.4 1.61151 93.3101 1.6275Z" fill="black"/>
<path d="M94.3773 2.54554C94.028 2.58161 93.7495 2.6258 93.5454 2.66565L93.7259 3.49944H94.5107L94.3773 2.54554Z" fill="black"/>
<path d="M97.5871 2.54541L97.4656 3.4994H98.2386L98.4307 2.66565C98.2266 2.62551 97.9364 2.58148 97.5871 2.54541Z" fill="black"/>
<path d="M96.4884 2.46529C96.3196 2.46238 96.151 2.4624 95.9823 2.4624C95.8134 2.4624 95.6448 2.46238 95.4761 2.46529L95.535 3.49948H96.4415L96.4884 2.46529Z" fill="black"/>
<mask id="mask3_17_1323" style="mask-type:luminance" maskUnits="userSpaceOnUse" x="92" y="0" width="3" height="2">
<path d="M92.9136 0H94.9226V1.85997H92.9136V0Z" fill="white"/>
</mask>
<g mask="url(#mask3_17_1323)">
<path d="M94.0632 1.40302L93.8278 0.228516C93.8278 0.228516 93.1411 0.348772 93.0391 0.380841L93.2863 1.5353C93.5335 1.48721 93.7807 1.44311 94.0632 1.40302Z" fill="black"/>
</g>
<path d="M95.4329 3.49939L95.3739 2.46924C95.06 2.48669 94.7461 2.50936 94.4792 2.53728L94.6008 3.49935L95.4329 3.49939Z" fill="black"/>
<path d="M97.1476 3.5957H94.6795C94.4206 3.5957 94.2322 3.80429 94.2322 4.0567C94.2322 4.31326 94.4204 4.51765 94.6795 4.51765H97.1476C97.4065 4.51765 97.5989 4.31317 97.5989 4.0567C97.5989 3.80421 97.4067 3.5957 97.1476 3.5957Z" fill="black"/>
<path d="M95.939 13.5971C95.88 13.6573 95.3307 14.2264 95.3307 14.2264L94.6912 13.573V14.8237C94.8247 14.972 95.2758 15.429 95.3307 15.4811C95.3857 15.4209 95.939 14.8558 95.939 14.8558C95.939 14.8558 96.5118 15.433 96.5667 15.4931C96.6217 15.4451 97.0258 15.0281 97.1946 14.8558V13.5971L96.5667 14.2425C96.5667 14.2425 96.0056 13.6572 95.939 13.5971Z" fill="black"/>
<path d="M96.5667 21.2094L97.1946 20.568V21.8267C97.0257 21.9992 96.6217 22.416 96.5667 22.4681C96.5078 22.4038 95.939 21.8227 95.939 21.8227C95.939 21.8227 95.3857 22.3839 95.3307 22.448C95.2758 22.4 94.8246 21.9389 94.6912 21.7987V20.5439L95.3307 21.1974C95.3307 21.1974 95.8801 20.6281 95.939 20.564C96.0056 20.6283 96.5667 21.2094 96.5667 21.2094Z" fill="black"/>
<path d="M96.5667 5.87258L97.1946 5.23519V6.4899C97.0257 6.6624 96.6217 7.08317 96.5667 7.13128C96.5078 7.07106 95.939 6.48586 95.939 6.48586C95.939 6.48586 95.3857 7.05107 95.3307 7.11521C95.2758 7.06314 94.8246 6.60611 94.6912 6.4618V5.21118L95.3307 5.86055C95.3307 5.86055 95.8801 5.29933 95.939 5.2312C96.0056 5.29927 96.5667 5.87258 96.5667 5.87258Z" fill="black"/>
<path d="M97.1946 4.62183V5.09485C97.0257 5.27113 96.6217 5.68811 96.5628 5.73623C96.5119 5.67223 95.939 5.09485 95.939 5.09485C95.939 5.09485 95.3857 5.66008 95.3307 5.7202C95.2758 5.67221 94.8246 5.21115 94.6912 5.06684V4.62183H97.1946Z" fill="black"/>
<path d="M96.5667 22.6042L97.1946 21.9669V23.0532H94.6912V21.9348L95.3307 22.5882C95.3307 22.5882 95.8801 22.023 95.939 21.9629C96.0056 22.0231 96.5667 22.6042 96.5667 22.6042Z" fill="black"/>
<path d="M90.0885 6.78656H89.3469V6.48193H90.0885V6.78656Z" fill="black"/>
<path d="M89.2488 7.10327H90.0885V7.40794H89.2488V7.10327Z" fill="black"/>
<path d="M90.0886 8.65032H86.0823V8.3457H90.0886V8.65032Z" fill="black"/>
<path d="M90.0884 8.02925H89.0015L89.1897 7.73262V7.72388L90.0882 7.72681L90.0884 8.02925Z" fill="black"/>
<path d="M86.8553 6.78656H86.0823V6.48193H86.8553V6.78656Z" fill="black"/>
<path d="M86.9573 7.40794H86.0823V7.10327H86.9573V7.40794Z" fill="black"/>
<path d="M86.6434 9.27581H86.0823V8.97119H87.0711L87.0122 9.00026C87.0122 9.00317 86.8004 9.11146 86.6434 9.27581Z" fill="black"/>
<path d="M86.3726 9.61255C86.251 9.78097 86.1607 9.96129 86.1018 10.1818V9.61255H86.3726Z" fill="black"/>
<path d="M87.2045 8.02923H86.0823V7.72461H87.0122L87.2045 8.02923Z" fill="black"/>
<path d="M88.6405 7.06714L88.7424 7.17939L88.6641 7.8288L88.4719 7.87679V7.2074L88.6405 7.06714Z" fill="black"/>
<path d="M87.8557 7.7166V7.10327H88.3502V7.7166C88.3502 7.91702 88.2599 8.07734 88.103 8.18558C87.9461 8.07737 87.8557 7.91711 87.8557 7.7166Z" fill="black"/>
<path d="M87.4751 7.17919L87.577 7.06689L87.7419 7.20711V7.87654L87.5417 7.82856L87.4751 7.17919Z" fill="black"/>
<path d="M94.5774 8.61433C94.5575 8.61433 94.5341 8.62305 94.5108 8.63178C94.4009 8.67599 94.3655 8.82814 94.4205 8.92841C94.4319 8.93713 94.4558 8.96853 94.5028 9.0526C94.5774 9.19281 94.5578 9.31324 94.5227 9.38532C94.5227 9.38532 94.3658 9.27709 94.2088 9.31723C94.2088 9.31723 94.2638 9.29398 94.2755 9.20089C94.2982 9.10868 94.1735 9.06446 94.0832 9.06853C93.9617 9.07144 93.7144 9.14069 93.6242 9.42131C93.5379 9.69795 93.424 9.99854 92.9532 10.0947C92.6589 10.1509 92.2429 10.2111 92.0428 10.2631C91.8193 10.3234 91.6151 10.3955 91.5916 10.5157C91.5831 10.632 91.7525 10.7361 91.929 10.7841C92.0859 10.8321 92.3999 10.8723 92.6157 10.8723C93.0513 10.8723 93.3417 10.8362 93.5575 10.9604C93.6358 11.0046 93.7263 11.0806 93.7693 11.1408C93.8949 11.297 93.9968 11.3531 94.095 11.3691C94.2089 11.3982 94.2991 11.3211 94.2638 11.2289C94.2439 11.1608 94.2089 11.1367 94.2089 11.1367C94.4011 11.16 94.5228 11.0686 94.5228 11.0686C94.5581 11.1448 94.5701 11.2531 94.5029 11.3733C94.4744 11.4053 94.4323 11.4815 94.4323 11.4815C94.3656 11.5978 94.389 11.77 94.5029 11.8342C94.5228 11.843 94.5342 11.8517 94.5695 11.8546C94.6911 11.8779 94.7697 11.8145 94.7697 11.8145C94.7469 11.9829 94.6361 12.0591 94.5029 12.0629C94.4858 12.0658 94.4744 12.0658 94.4675 12.0658C94.032 12.0629 93.8947 11.5767 93.8947 11.5767C93.7378 11.248 93.5455 11.1519 93.4356 11.1078C93.31 11.0635 93.1413 11.0516 92.7293 11.1438C92.3683 11.2241 92.0426 11.252 91.764 11.2401C90.9635 11.1881 90.6182 11.0036 90.4574 10.739C90.2885 10.4824 90.2808 10.0936 90.3828 9.88519C90.5044 9.66877 90.8183 9.56854 91.1989 9.68071C91.5835 9.79299 92.1877 9.90526 92.5801 9.90526C92.9843 9.90526 93.2197 9.82498 93.3335 9.64085C93.4121 9.52071 93.4434 9.33221 93.5573 9.15584C93.6356 9.03949 93.7692 8.9272 93.9497 8.8632C93.9497 8.8632 93.985 8.35412 94.4677 8.39822C94.4762 8.39822 94.511 8.40112 94.5226 8.40985C94.6795 8.44592 94.7698 8.57015 94.7698 8.6865C94.7698 8.6865 94.7146 8.61026 94.5774 8.61433Z" fill="black"/>
<path d="M94.1302 10.2337C94.1302 10.4301 94.3107 10.5304 94.5461 10.5104C94.5775 10.5424 94.5894 10.5866 94.5775 10.6666C94.5661 10.8068 94.4205 10.9713 94.1419 10.9713C93.8397 10.9713 93.5337 10.7668 93.5337 10.2377C93.5337 9.70456 93.8397 9.49609 94.1419 9.49609C94.4204 9.49609 94.5657 9.66044 94.5775 9.80475C94.5888 9.86875 94.5774 9.92113 94.5575 9.9732C94.322 9.9732 94.1302 10.0772 94.1302 10.2337Z" fill="black"/>
<path d="M90.112 10.1376C90.0893 10.3823 90.1553 10.5866 90.1906 10.6828C90.2339 10.7828 90.2689 10.9754 90.0571 11.0676C89.8882 11.1438 89.6843 11.1799 89.3272 11.1598C88.8093 11.1197 88.2481 10.9513 87.8322 10.767C87.644 10.6829 87.4634 10.5825 87.4634 10.4303C87.4634 10.2179 87.6322 10.1897 87.7655 10.1496C88.0127 10.0734 88.1932 9.94508 88.3502 9.7848C88.5071 9.63645 88.6955 9.48413 88.9427 9.48413C89.1898 9.48413 89.3586 9.51319 89.6294 9.62839C89.8962 9.74474 90.1474 9.86911 90.112 10.1376Z" fill="black"/>
<path d="M87.9578 11.3964C88.0011 11.2763 88.0913 11.1879 88.2482 11.212C88.417 11.2411 88.515 11.2681 88.6288 11.3242C88.6954 11.3644 88.719 11.4284 88.6954 11.5287C88.6754 11.625 88.5855 11.9416 88.0675 12.4267C87.879 12.6029 87.5653 12.8195 87.2946 12.8315C87.0357 12.849 86.9453 12.7073 86.9453 12.5508V12.2902C86.9453 12.1901 87.012 12.0616 87.1142 12.0377C87.3614 11.9816 87.8087 11.7734 87.9578 11.3964Z" fill="black"/>
<path d="M90.5279 9.45214C90.5279 9.45214 90.3357 9.50826 90.1904 9.69676C90.1904 9.69676 89.8412 9.38009 89.2016 9.27988C88.5856 9.21181 88.4835 9.36395 88.1226 9.67674C87.8322 9.92923 87.5732 9.97737 87.5418 9.91323C87.4752 9.78494 87.7107 9.62467 87.8126 9.5244C87.8989 9.42434 87.8211 9.33212 87.6634 9.41619C87.5182 9.49648 87.1925 9.82906 87.1376 10.1217H87.1262V10.1362C87.1148 10.2244 87.0789 10.5331 87.3264 10.7456C87.4403 10.8497 87.5422 10.9017 87.6991 10.9619C87.8207 11.0062 87.8797 11.1944 87.7305 11.3788C87.5969 11.5632 87.3498 11.7556 87.0359 11.8438C86.8554 11.8918 86.7575 12.0242 86.7575 12.2246V14.277C86.7575 14.4254 86.6908 14.6097 86.475 14.6097C86.2708 14.6097 86.114 14.6618 86.114 14.4736V11.2388C86.114 9.84379 86.891 9.27856 87.1617 9.13425C87.6639 8.85762 88.484 8.71737 89.3826 8.9097C89.9437 9.02984 90.3238 9.25975 90.5279 9.45214Z" fill="black"/>
<path d="M89.9786 11.8373C89.9786 11.8373 89.5274 11.8285 89.237 11.5728C89.1468 11.4847 89.2017 11.3643 89.3469 11.3643C89.5038 11.3643 89.7393 11.3963 89.9787 11.3352L89.9786 11.8373Z" fill="black"/>
<path d="M89.9 12.0417C89.8772 12.122 89.8217 12.2421 89.7744 12.2581C89.7744 12.2581 89.6605 12.2902 89.5036 12.2983C89.4054 12.2983 89.3271 12.2896 89.1701 12.1781C89.0682 12.0979 88.9113 11.9376 88.8523 11.8856C88.7973 11.8175 88.766 11.7572 88.821 11.661C88.8643 11.5647 88.9545 11.5446 89.0801 11.6435C89.2017 11.7398 89.3272 11.8279 89.4725 11.8841C89.606 11.9283 89.7079 11.9562 89.8335 11.9562C89.8767 11.9649 89.9196 11.9978 89.9 12.0417Z" fill="black"/>
<path d="M89.6294 12.8876C89.3822 12.9437 89.1899 12.8274 89.0683 12.7634C88.9427 12.7032 88.6523 12.4628 88.5856 12.3986C88.4837 12.2986 88.4717 12.1781 88.5384 12.09C88.605 12.0059 88.7072 11.9777 88.7855 12.0338C88.8641 12.09 89.0013 12.2342 89.0994 12.3064C89.225 12.3905 89.3819 12.4626 89.5271 12.4506C89.5271 12.4506 89.6644 12.439 89.739 12.4105C89.8213 12.3814 89.8645 12.428 89.8529 12.5507C89.8415 12.679 89.751 12.8595 89.6294 12.8876Z" fill="black"/>
<path d="M89.3272 13.3926C89.135 13.4043 88.9466 13.3607 88.7073 13.2082C88.4718 13.0558 88.0559 12.7473 88.1697 12.5388C88.2247 12.4507 88.3386 12.4265 88.4405 12.5097C88.5504 12.5979 88.8211 12.8104 88.9781 12.9026C89.08 12.9506 89.2369 13.0349 89.3705 13.0509C89.551 13.0742 89.6413 13.0509 89.6413 13.0509C89.6527 13.2595 89.5156 13.3766 89.3272 13.3926Z" fill="black"/>
<path d="M89.3036 13.5449C89.3036 13.5449 89.339 13.6572 89.2564 13.7535C89.1701 13.8497 88.966 13.8657 88.7071 13.8096C88.4482 13.7535 88.2009 13.6252 88.0243 13.4448C87.8438 13.2645 87.6633 13.044 87.7655 12.9037C87.8204 12.8196 87.9657 12.7955 88.0676 12.9037C88.1579 13.0119 88.5267 13.3005 88.7307 13.4048C88.9426 13.5089 89.08 13.5571 89.3036 13.5449Z" fill="black"/>
<path d="M88.417 14.2304C88.2718 14.1984 87.8559 14.05 87.5302 13.7253C87.3183 13.5167 87.126 13.3324 87.0358 13.0999C87.0244 13.0438 87.0358 13.0118 87.1377 13.0278C87.228 13.0453 87.2476 13.0365 87.2946 13.0452C87.3849 13.0452 87.4752 13.0453 87.5418 13.1416C87.687 13.3501 87.8988 13.5745 88.0911 13.7268C88.2793 13.883 88.6405 13.9915 88.8641 13.9752C88.8641 13.9752 88.9427 14.0593 88.8641 14.1556C88.7975 14.2597 88.5739 14.2583 88.417 14.2304Z" fill="black"/>
<path d="M88.4484 14.4509C88.2952 14.4951 87.9697 14.5111 87.6989 14.4509C87.4164 14.3866 87.2163 14.2505 87.0711 14.0701C86.9691 13.9378 86.9376 13.8738 86.9102 13.7254C86.9102 13.7254 86.8903 13.4488 86.9575 13.4208C87.0125 13.3917 87.0714 13.4499 87.1617 13.561C87.2283 13.6573 87.452 13.9298 87.7659 14.1302C88.0367 14.3027 88.3741 14.3548 88.4958 14.3425C88.6173 14.328 88.5976 14.407 88.4484 14.4509Z" fill="black"/>
<path d="M91.089 11.3682C91.089 11.3682 90.7397 11.4764 90.5043 11.705C90.5043 11.705 90.4024 11.4964 90.1433 11.2961C90.1433 11.2961 90.3121 11.2481 90.4141 11.0715C90.4141 11.0715 90.5829 11.3162 91.089 11.3682Z" fill="black"/>
<path d="M88.3699 17.9784C88.4955 18.4073 88.5388 19.0406 88.5388 19.8784C88.5388 20.7162 88.1229 22.2795 87.5421 22.2795C86.9575 22.2795 86.5416 21.5099 86.4866 20.4877C86.4396 19.4735 86.6435 18.9684 86.8123 18.4473C86.9458 18.0304 86.9458 17.8019 86.8237 17.6175C86.7217 17.4651 86.5529 17.4212 86.3724 17.3811C86.1842 17.3368 85.9683 17.2609 85.9683 16.868V15.1563C85.9683 14.7995 86.1724 14.7996 86.3175 14.7996C86.4627 14.7996 86.6863 14.8918 86.8355 15.0241C86.9807 15.1565 87.1023 15.3207 87.1023 15.898C87.1023 16.4752 87.0356 17.4814 87.5418 17.4814C88.1029 17.4814 88.2483 17.5534 88.3699 17.9784Z" fill="black"/>
<path d="M85.0267 17.7139C84.701 17.8864 84.3283 17.9664 83.8927 17.9664C83.0177 17.9664 81.5149 17.313 81.4795 14.8678L81.4681 14.1182C81.4454 12.2863 81.5034 9.83705 80.9855 8.77879C80.7973 8.39398 80.5146 8.33785 80.2125 8.45007C80.2125 8.45298 80.2011 8.45884 80.1897 8.46174C80.1783 8.46174 80.1783 8.46463 80.1783 8.46463C80.1234 8.48499 80.0567 8.49663 79.9901 8.49663C79.6723 8.49663 79.4172 8.23599 79.4172 7.9154C79.4172 7.59071 79.6957 7.32617 80.0568 7.32617C80.8533 7.32617 81.2143 7.98753 81.4263 8.50866C81.9089 9.70319 81.8971 12.0001 81.9167 14.1126L81.9281 14.8262C81.9395 15.7722 82.187 16.4897 82.658 16.9547C83.1289 17.4317 83.6821 17.4838 83.894 17.4838C84.9613 17.4838 85.5459 16.5098 85.6911 16.153V17.4838C85.6911 17.62 85.6009 17.6523 85.5223 17.6441C85.4084 17.6237 85.2386 17.6255 85.0267 17.7139Z" fill="black"/>
<path d="M88.7426 17.1245C88.7426 17.4452 88.5738 17.4933 88.3738 17.4933C88.4601 17.4758 88.5386 17.333 88.5386 17.2007V15.3046C88.5386 15.008 88.3817 14.9439 88.3817 14.9439V14.5751L88.527 14.5576C88.527 14.6818 88.5623 14.7621 88.6525 14.8542C88.7428 14.9424 88.7428 15.0428 88.7428 15.191L88.7426 17.1245Z" fill="black"/>
<path d="M91.4148 17.1727C91.3009 17.4494 91.0774 17.6097 90.9086 17.5936C90.7281 17.5762 90.6262 17.5576 90.4574 17.4133C90.2885 17.2609 89.9787 17.0926 89.5706 17.0926C89.3155 17.0926 88.8093 17.1217 88.8878 16.4913C88.9191 16.2028 89.3587 16.0263 89.8531 15.9942C90.371 15.9541 90.9204 16.0865 91.1911 16.2909C91.458 16.4913 91.5363 16.8601 91.4148 17.1727Z" fill="black"/>
<path d="M85.7212 25.4863C85.7099 25.6346 85.5211 25.8832 85.1719 25.9192C84.8462 25.9553 84.3636 25.839 84.2537 25.3019C84.1948 25.0535 84.1398 24.6405 84.1635 23.9991C84.1863 23.2575 84.1948 22.8126 84.1282 22.4959C84.0615 22.1832 83.826 21.4136 84.3753 21.2733C84.5322 21.2291 84.6892 21.3024 84.803 21.3696C84.9013 21.4336 85.0032 21.4618 85.2072 21.3696C85.3994 21.2774 85.6898 21.2134 86.0391 21.2093C85.9801 21.1052 85.9448 20.9527 85.9018 20.7563C85.733 19.9706 85.7566 18.4594 85.8904 17.7139C85.9257 17.5655 86.0396 17.5295 86.2043 17.5495C86.3965 17.5699 86.5653 17.6298 86.6438 17.734C86.7773 17.8942 86.7577 18.0225 86.5655 18.6318C86.3653 19.2932 86.3066 19.9066 86.33 20.4678C86.3414 20.8005 86.3849 21.045 86.4319 21.2254C86.4633 21.3057 86.4319 21.4177 86.3181 21.4299C86.2042 21.4444 86.0826 21.47 85.9257 21.5541C85.8904 21.5832 85.7568 21.7024 85.6235 21.7906C85.4626 21.8906 85.2861 21.9669 85.0938 21.975C84.9249 21.9779 84.8583 21.9546 84.6896 21.9069C84.5444 21.8627 84.4308 21.9157 84.364 22.0032C84.309 22.0754 84.2777 22.2036 84.2973 22.3279C84.3087 22.5243 84.3876 22.6847 84.4542 22.7849C84.6231 23.0615 84.6231 23.3461 84.6111 23.6547C84.5884 24.4725 84.5328 25.0577 84.725 25.162C84.8819 25.2382 85.0154 25.0616 85.2194 25.0497C85.4902 25.0322 85.4549 25.5908 85.5333 25.4345C85.6 25.3103 85.7329 25.3342 85.7212 25.4863Z" fill="black"/>
<path d="M88.1697 21.9951C88.1811 22.6284 87.844 22.881 87.4398 22.921C86.9768 22.969 86.3058 22.7206 86.0704 22.6924C85.8349 22.6633 85.78 22.7128 85.6898 22.8087C85.5878 22.9088 85.3759 23.1776 85.3523 23.4221C85.3523 23.5623 85.3523 23.9432 85.3956 24.2238C85.4309 24.5083 85.945 24.4722 85.945 24.4722C85.7331 24.5042 85.6114 24.6968 85.5761 24.7849C85.5328 24.9451 85.5875 25.1937 85.5875 25.1937C85.5209 25.0134 85.4306 24.869 85.25 24.857C85.1715 24.8541 85.0263 24.9013 84.8812 24.9772C84.7124 25.0653 84.7556 24.5523 84.7673 24.1795C84.7787 23.8027 84.8262 23.4659 84.7559 23.1012C84.7246 22.8807 85.0698 22.8126 85.164 22.7524C85.262 22.6881 85.3169 22.5921 85.3522 22.4598C85.3955 22.2995 85.5211 22.1592 85.6426 22.0228C85.8584 21.7904 86.0821 21.634 86.3489 21.606C86.3842 21.606 86.5334 21.5885 86.608 21.7584C86.8355 22.2154 87.0592 22.2995 87.2594 22.3757C87.3143 22.3961 87.1378 22.6564 86.969 22.6724C87.0473 22.7084 87.3065 22.7526 87.5537 22.6724C87.7772 22.5961 87.8872 22.3396 87.8872 22.3396C87.9775 22.2995 88.111 22.1475 88.1697 21.9951Z" fill="black"/>
<path d="M87.0356 24.9171C87.0356 24.9171 86.9217 24.9973 86.9021 25.1815C86.8907 25.3339 86.9021 25.4861 86.8793 25.4982C86.844 25.5011 86.844 25.4981 86.8243 25.3539C86.789 25.1654 86.7224 25.0653 86.6202 24.965C86.5182 24.8728 86.2749 24.8449 86.318 24.9622C86.3653 25.0744 86.373 25.2027 86.3653 25.3189C86.3425 25.4992 86.2161 25.6516 86.1808 25.5153C86.1375 25.3788 85.969 25.1826 85.7335 25.1705C85.7335 25.1705 85.6549 24.966 85.7688 24.7857C85.9023 24.5492 86.3416 24.5291 86.5182 24.557C86.6751 24.5774 86.9807 24.7087 87.0356 24.9171Z" fill="black"/>
<path d="M87.4753 25.4744C87.5066 25.6306 87.4163 25.8793 87.3144 25.9595C87.2045 26.0476 87.1928 25.9594 87.2162 25.8713C87.2475 25.7709 87.1612 25.6869 87.1142 25.6549C87.0789 25.6316 87.0359 25.6147 87.0359 25.4905C87.0359 25.3622 87.0587 25.0576 87.1811 25.0576C87.3264 25.0576 87.4518 25.3219 87.4753 25.4744Z" fill="black"/>
<path d="M86.655 25.3221C86.6983 25.4585 86.7333 25.6828 86.71 25.8231C86.6747 25.9633 86.655 26.0035 86.608 25.8793C86.5648 25.7551 86.4432 25.6669 86.4865 25.5586C86.5297 25.4664 86.5414 25.2861 86.4865 25.1417C86.4979 25.0577 86.6078 25.2258 86.655 25.3221Z" fill="black"/>
<path d="M86.0703 25.7871C86.0703 25.8834 86.059 25.9355 86.0037 25.9916C85.9684 26.0358 85.9254 26.0359 85.9018 25.9195C85.8904 25.8514 85.8665 25.7272 85.8115 25.6871C85.8115 25.6871 85.8901 25.5908 85.8468 25.3503C85.9921 25.4545 86.082 25.6548 86.0703 25.7871Z" fill="black"/>
<path d="M87.9774 4.36922L87.946 3.61963H88.2599L88.2246 4.36922H87.9774Z" fill="black"/>
<path d="M88.6759 4.50163L88.4404 4.40158L88.6836 3.71613L88.695 3.69287L88.9775 3.81706L88.6759 4.50163Z" fill="black"/>
<path d="M88.8525 4.6098L89.3156 4.06061L89.3383 4.04028L89.5618 4.26075L89.0321 4.78988L88.8525 4.6098Z" fill="black"/>
<path d="M89.1467 4.93863L89.7628 4.56583L89.7742 4.5542L89.9311 4.8349L89.2679 5.16761L89.1467 4.93863Z" fill="black"/>
<path d="M89.3037 5.34751L90.01 5.21924L90.0328 5.21631L90.0761 5.533L89.3502 5.60921L89.3037 5.34751Z" fill="black"/>
<path d="M89.3469 5.85645H90.0885V6.15707H89.3469V5.85645Z" fill="black"/>
<path d="M87.5419 4.50152L87.228 3.81606L87.4948 3.70381L87.5176 3.69214L87.7647 4.40165L87.5419 4.50152Z" fill="black"/>
<path d="M87.1691 4.79012L86.6433 4.24497L86.8552 4.04044L86.8665 4.02881L87.3609 4.61004L87.1691 4.79012Z" fill="black"/>
<path d="M86.9454 5.16704L86.2627 4.82629L86.4079 4.56188L86.4165 4.54443L87.0598 4.93729L86.9454 5.16704Z" fill="black"/>
<path d="M86.867 5.60409L86.1018 5.53192L86.1491 5.23932V5.21606L86.9025 5.34842L86.867 5.60409Z" fill="black"/>
<path d="M86.8553 6.15707H86.0823V5.85645H86.8553V6.15707Z" fill="black"/>
<path d="M88.7858 6.49379C88.7858 6.91468 88.5856 6.97884 88.4405 6.97884C88.2953 6.97884 88.1697 6.91481 88.1697 6.72224V6.32943C88.1697 6.20115 88.2599 6.08101 88.3698 6.02077C88.4718 5.97655 88.5308 5.86048 88.5387 5.74819C88.5387 5.67605 88.5615 5.67198 88.5976 5.71619C88.7076 5.8564 88.7858 6.12902 88.7858 6.49379Z" fill="black"/>
<path d="M88.8997 6.34551C88.8997 5.96471 88.7428 5.70818 88.6838 5.65207C88.6289 5.59593 88.6753 5.57178 88.7311 5.59592C88.8999 5.66021 89.0685 5.59592 89.1588 5.54385C89.1588 5.54385 89.249 5.45161 89.249 5.81638C89.249 6.24931 89.0449 6.48583 88.9666 6.5219C88.9466 6.53645 88.8999 6.56203 88.8999 6.50153L88.8997 6.34551Z" fill="black"/>
<path d="M87.7656 6.97889C87.6321 6.97889 87.4282 6.91487 87.4282 6.49383C87.4282 6.13305 87.4949 5.85649 87.6088 5.71619C87.6441 5.67198 87.6637 5.67605 87.6637 5.74819C87.6751 5.8564 87.7303 5.9768 87.8326 6.02072C87.9465 6.08094 88.0367 6.20107 88.0367 6.32938V6.7222C88.0367 6.91477 87.9109 6.97889 87.7656 6.97889Z" fill="black"/>
<path d="M87.742 5.74831V5.28332C87.742 5.25423 87.7221 5.23126 87.6988 5.23126H87.1024C87.0796 5.23126 87.0796 5.19928 87.0796 5.18328C87.2405 4.76239 87.6407 4.46973 88.1037 4.46973C88.5628 4.46973 88.9787 4.76239 89.1239 5.18328C89.1239 5.20073 89.1239 5.23126 89.1012 5.23126H88.5087C88.4859 5.23126 88.4614 5.25453 88.4614 5.28332V5.74831C88.4614 5.76867 88.4415 5.79629 88.4181 5.79629H87.802C87.7667 5.79629 87.742 5.76722 87.742 5.74831Z" fill="black"/>
<path d="M87.5184 5.65206C87.4635 5.7082 87.3143 5.9647 87.3143 6.34551V6.50174C87.3057 6.56196 87.271 6.5419 87.236 6.52212C87.1614 6.48605 86.9575 6.24953 86.9575 5.8166C86.9575 5.44781 87.0478 5.54403 87.0478 5.54403C87.1457 5.5961 87.3146 5.66038 87.4755 5.59609C87.5421 5.57282 87.5731 5.59592 87.5184 5.65206Z" fill="black"/>
<path d="M94.5892 10.3863C94.5693 10.395 94.5459 10.3979 94.5342 10.3979C94.4989 10.4008 94.2634 10.4212 94.2634 10.2455C94.2634 10.1091 94.444 10.0972 94.5342 10.0972C94.5456 10.0972 94.5695 10.0971 94.5775 10.1001C94.6598 10.1117 94.805 10.1562 94.962 10.2444C94.8128 10.3325 94.6677 10.3744 94.5892 10.3863Z" fill="black"/>
<path d="M88.056 15.0602V15.2566C88.056 15.2653 88.0474 15.274 88.0361 15.274H87.7889C87.7775 15.274 87.7775 15.2653 87.7775 15.2566V14.9959C87.7775 14.9843 87.7775 14.9756 87.7889 14.9756H88.0361C88.0474 14.9756 88.056 14.9843 88.056 14.9959V15.0721H88.2129V14.6793C88.2129 14.6793 87.4281 14.8518 86.9573 14.2504C86.9345 14.2213 86.9023 14.2504 86.9023 14.3106C86.9023 14.3749 86.9222 14.6713 86.6748 14.7195C86.6748 14.7195 86.9336 14.8157 87.0711 15.0002C87.181 15.1485 87.2713 15.405 87.2713 15.89V16.5154C87.2713 16.9042 87.3302 17.293 87.5655 17.293C88.0796 17.293 88.213 17.4094 88.213 17.4094C88.3269 17.4094 88.3503 17.209 88.3503 17.0887V16.8441H88.056V17.0445C88.056 17.0533 88.0474 17.062 88.0361 17.062H87.7889C87.7775 17.062 87.7775 17.0533 87.7775 17.0445V16.7801C87.7775 16.7714 87.7775 16.7656 87.7889 16.7656H88.0361C88.0474 16.7656 88.056 16.7743 88.056 16.7801V16.8563L88.3503 16.8592V16.302H88.056V16.4303C88.056 16.439 88.0474 16.4478 88.0361 16.4478H87.7889C87.7775 16.4478 87.7775 16.439 87.7775 16.4303V16.1659C87.7775 16.1571 87.7775 16.1455 87.7889 16.1455H88.0361C88.0474 16.1455 88.056 16.1571 88.056 16.1659V16.3302H88.3503V15.7249H88.056V15.8532C88.056 15.8648 88.0474 15.8735 88.0361 15.8735H87.7889C87.7775 15.8735 87.7775 15.8648 87.7775 15.8532V15.5925C87.7775 15.5838 87.7775 15.5751 87.7889 15.5751H88.0361C88.0474 15.5751 88.056 15.5838 88.056 15.5925V15.7368H88.3503V15.32C88.3503 15.2199 88.2953 15.1437 88.2483 15.1236L88.213 15.1032V15.059L88.056 15.0602Z" fill="black"/>
<path d="M85.3287 22.1554C85.2737 22.2156 85.1835 22.4079 85.1522 22.4961C85.1169 22.5924 85.0266 22.6285 84.9716 22.6445C84.901 22.6649 84.8577 22.6887 84.7675 22.7527C84.7125 22.7928 84.6459 22.7928 84.6106 22.744C84.544 22.6477 84.5323 22.5997 84.489 22.4874C84.4537 22.3952 84.442 22.2029 84.489 22.1426C84.5203 22.0783 84.6342 22.0545 84.8029 22.1106C84.9717 22.1586 85.1403 22.1549 85.3052 22.0903C85.3641 22.0728 85.3765 22.0911 85.3287 22.1554Z" fill="black"/>
<path d="M91.2774 18.3792C91.2225 18.6719 91.2224 18.9605 91.3002 19.0968C91.3904 19.2611 91.5945 19.3173 91.6808 19.3251C91.7828 19.3339 92.0771 19.3426 92.3557 19.3542C93.1876 19.3944 93.6035 19.715 93.5093 19.8192C93.478 19.8553 93.4111 19.8835 93.2542 19.8367C93.1286 19.8006 92.7009 19.6043 92.2104 19.6162C91.9396 19.6191 91.5238 19.7444 91.2766 19.8367C91.0294 19.9329 91.0647 19.6965 91.0647 19.6322V19.1992C91.0294 18.0808 90.6252 17.684 90.6252 17.684C90.6842 17.732 90.9431 17.7643 90.9862 17.7521C91.2217 17.6919 91.3904 17.5677 91.4688 17.3833C91.4575 17.6518 91.3324 18.1467 91.2774 18.3792Z" fill="black"/>
<path d="M102.539 6.48193H101.797V6.78656H102.539V6.48193Z" fill="black"/>
<path d="M101.797 7.10327V7.40794H102.637V7.10327H101.797Z" fill="black"/>
<path d="M101.797 8.3457V8.65032H105.804V8.3457H101.797Z" fill="black"/>
<path d="M102.696 7.72461H101.797V8.02923H102.876L102.696 7.7326V7.72461Z" fill="black"/>
<path d="M105.031 6.48193V6.78656H105.804V6.48193H105.031Z" fill="black"/>
<path d="M105.804 7.10327H104.929V7.40794H105.804V7.10327Z" fill="black"/>
<path d="M105.804 8.97119H104.807L104.873 9.00026C104.873 9.00317 105.085 9.11253 105.242 9.27688H105.803L105.804 8.97119Z" fill="black"/>
<path d="M105.78 10.1818V9.61255H105.513C105.635 9.78097 105.725 9.95728 105.78 10.1818Z" fill="black"/>
<path d="M104.874 7.72461L104.681 8.02923H105.804V7.72461H104.874Z" fill="black"/>
<path d="M103.414 7.87674V7.20731L103.245 7.06714L103.143 7.17939L103.222 7.8288L103.414 7.87674Z" fill="black"/>
<path d="M103.783 8.18558C103.94 8.07737 104.03 7.91711 104.03 7.7166V7.10327H103.536V7.7166C103.536 7.91702 103.626 8.07734 103.783 8.18558Z" fill="black"/>
<path d="M104.144 7.87674V7.20731L104.313 7.06714L104.411 7.17939L104.344 7.8288L104.144 7.87674Z" fill="black"/>
<path d="M104.422 10.4302C104.422 10.2179 104.254 10.1897 104.12 10.1495C103.873 10.0733 103.693 9.94502 103.536 9.78875C103.379 9.63633 103.186 9.48413 102.943 9.48413C102.708 9.48413 102.527 9.5132 102.256 9.63247C101.99 9.74475 101.742 9.87303 101.762 10.1375C101.797 10.3822 101.731 10.5865 101.695 10.6827C101.652 10.7828 101.617 10.9753 101.833 11.0676C101.997 11.1438 102.201 11.1798 102.559 11.1597C103.076 11.1237 103.638 10.9512 104.054 10.7629C104.246 10.6826 104.422 10.5826 104.422 10.4302Z" fill="black"/>
<path d="M103.257 11.3242C103.19 11.3644 103.167 11.4283 103.19 11.5287C103.222 11.6288 103.3 11.9456 103.818 12.4266C104.01 12.6029 104.32 12.8194 104.579 12.8315C104.85 12.8489 104.94 12.7073 104.94 12.5508V12.2901C104.94 12.1898 104.874 12.0656 104.76 12.0377C104.513 11.9815 104.077 11.7733 103.928 11.3963C103.873 11.2799 103.794 11.1877 103.638 11.2119C103.469 11.241 103.367 11.2681 103.257 11.3242Z" fill="black"/>
<path d="M102.684 9.27987C103.3 9.2118 103.402 9.36393 103.759 9.67673C104.054 9.92922 104.313 9.97736 104.332 9.91322C104.415 9.78493 104.175 9.62466 104.077 9.52439C103.987 9.42433 104.06 9.33211 104.21 9.41618C104.367 9.49647 104.693 9.82905 104.748 10.1217H104.759V10.1362C104.771 10.2244 104.803 10.5331 104.555 10.7455C104.434 10.8497 104.332 10.898 104.186 10.962C104.076 11.01 104.006 11.1944 104.143 11.3788C104.288 11.5633 104.535 11.7596 104.849 11.8438C105.03 11.8918 105.128 12.0242 105.128 12.2247V14.277C105.128 14.4254 105.194 14.6098 105.41 14.6098C105.614 14.6098 105.767 14.6618 105.767 14.4736V11.2388C105.767 9.84378 104.994 9.27859 104.724 9.13429C104.221 8.85765 103.401 8.71736 102.503 8.90969C101.942 9.02983 101.561 9.25845 101.357 9.45085C101.357 9.45085 101.549 9.50701 101.683 9.6955C101.683 9.6955 102.045 9.38008 102.684 9.27987Z" fill="black"/>
<path d="M101.907 11.8373C101.907 11.8373 102.358 11.8285 102.637 11.5728C102.739 11.4847 102.684 11.3643 102.539 11.3643C102.382 11.3643 102.142 11.3963 101.907 11.3352L101.907 11.8373Z" fill="black"/>
<path d="M101.978 12.0417C102.009 12.122 102.068 12.2421 102.111 12.2581C102.111 12.2581 102.221 12.2902 102.37 12.2983C102.469 12.2983 102.559 12.2896 102.716 12.1781C102.818 12.0979 102.974 11.9376 103.03 11.8856C103.088 11.8175 103.12 11.7572 103.065 11.661C103.018 11.5647 102.92 11.5446 102.806 11.6435C102.684 11.7398 102.559 11.8279 102.414 11.8841C102.28 11.9283 102.178 11.9562 102.053 11.9562C102.009 11.9649 101.966 11.9978 101.978 12.0417Z" fill="black"/>
<path d="M102.256 12.8876C102.504 12.9437 102.704 12.8274 102.817 12.7634C102.943 12.7032 103.233 12.4628 103.3 12.3986C103.402 12.2986 103.414 12.1781 103.347 12.09C103.281 12.0059 103.179 11.9777 103.1 12.0338C103.022 12.09 102.884 12.2342 102.786 12.3064C102.661 12.3905 102.504 12.4626 102.359 12.4506C102.359 12.4506 102.221 12.439 102.147 12.4105C102.064 12.3814 102.021 12.428 102.033 12.5507C102.044 12.679 102.135 12.8595 102.256 12.8876Z" fill="black"/>
<path d="M102.515 13.0479C102.649 13.0362 102.806 12.9556 102.908 12.9036C103.065 12.8154 103.336 12.5989 103.449 12.5107C103.548 12.4266 103.661 12.4505 103.716 12.5398C103.842 12.7484 103.414 13.0569 103.179 13.2092C102.943 13.3617 102.751 13.4056 102.563 13.3896C102.37 13.3779 102.237 13.2613 102.245 13.0489C102.245 13.0489 102.335 13.0769 102.515 13.0479Z" fill="black"/>
<path d="M104.12 12.9034C104.065 12.8194 103.909 12.7952 103.818 12.9034C103.728 13.0117 103.355 13.3003 103.143 13.4046C102.939 13.5087 102.806 13.5569 102.582 13.5447C102.582 13.5447 102.551 13.657 102.637 13.7533C102.715 13.8496 102.92 13.8656 103.179 13.8094C103.434 13.7533 103.685 13.625 103.861 13.4446C104.042 13.2643 104.211 13.0397 104.12 12.9034Z" fill="black"/>
<path d="M104.85 13.1C104.862 13.0398 104.85 13.0119 104.748 13.0279C104.646 13.0395 104.634 13.0366 104.579 13.0395C104.501 13.0424 104.414 13.0395 104.332 13.1396C104.199 13.3441 103.987 13.5725 103.795 13.7248C103.602 13.881 103.245 13.9892 103.022 13.9773C103.022 13.9773 102.943 14.0576 103.022 14.1536C103.088 14.2577 103.312 14.2577 103.469 14.2298C103.614 14.1978 104.03 14.0495 104.356 13.7247C104.568 13.5162 104.76 13.3325 104.85 13.1Z" fill="black"/>
<path d="M104.929 13.4208C104.862 13.3917 104.803 13.4499 104.724 13.561C104.65 13.6573 104.434 13.9338 104.12 14.1302C103.849 14.3027 103.516 14.3548 103.39 14.3425C103.269 14.328 103.288 14.4068 103.438 14.4507C103.583 14.495 103.916 14.511 104.187 14.4507C104.458 14.3865 104.67 14.2503 104.803 14.0699C104.905 13.9376 104.952 13.8695 104.972 13.7252C104.972 13.7252 104.995 13.4488 104.929 13.4208Z" fill="black"/>
<path d="M101.381 11.705C101.381 11.705 101.483 11.4964 101.739 11.2961C101.739 11.2961 101.574 11.2481 101.472 11.0715C101.472 11.0715 101.303 11.3162 100.797 11.3641C100.797 11.3641 101.146 11.4765 101.381 11.705Z" fill="black"/>
<path d="M105.917 15.1564C105.917 14.7956 105.713 14.7957 105.568 14.7957C105.423 14.7957 105.199 14.8919 105.05 15.0243C104.905 15.1566 104.783 15.3209 104.783 15.8982C104.783 16.4754 104.85 17.4815 104.344 17.4815C103.771 17.4815 103.638 17.5537 103.516 17.9786C103.39 18.4075 103.347 19.0409 103.347 19.8787C103.347 20.7164 103.759 22.2798 104.344 22.2798C104.928 22.2798 105.344 21.5141 105.388 20.4879C105.435 19.4738 105.242 18.9687 105.074 18.4476C104.94 18.0307 104.94 17.8022 105.062 17.6179C105.164 17.4654 105.333 17.4215 105.514 17.3814C105.702 17.3371 105.918 17.2612 105.918 16.8683L105.917 15.1564Z" fill="black"/>
<mask id="mask4_17_1323" style="mask-type:luminance" maskUnits="userSpaceOnUse" x="105" y="6" width="8" height="13">
<path d="M105.972 6.99097H112.47V18.2791H105.972V6.99097Z" fill="white"/>
</mask>
<g mask="url(#mask4_17_1323)">
<path d="M106.196 17.4853V16.1545C106.341 16.5152 106.926 17.4853 107.993 17.4853C108.205 17.4853 108.758 17.4332 109.229 16.9562C109.7 16.4912 109.947 15.7737 109.955 14.8276L109.967 14.1141C109.979 12.0016 109.979 9.70471 110.461 8.51016C110.677 7.99306 111.034 7.32764 111.831 7.32764C112.192 7.32764 112.47 7.5922 112.47 7.91689C112.47 8.23758 112.215 8.49813 111.897 8.49813C111.831 8.49813 111.764 8.48611 111.709 8.46607C111.697 8.46607 111.697 8.46207 111.697 8.46207C111.686 8.45806 111.674 8.45406 111.674 8.45004C111.372 8.33379 111.089 8.39391 110.901 8.77874C110.383 9.837 110.442 12.2862 110.418 14.1181L110.406 14.8677C110.371 17.313 108.868 17.9704 107.993 17.9704C107.554 17.9704 107.185 17.8862 106.859 17.7138C106.647 17.6216 106.479 17.6216 106.365 17.6457C106.286 17.6537 106.196 17.6216 106.196 17.4853Z" fill="black"/>
</g>
<path d="M103.516 17.4933C103.312 17.4933 103.143 17.4453 103.143 17.1246V15.1924C103.143 15.0441 103.143 14.9478 103.234 14.8557C103.324 14.7635 103.355 14.6873 103.355 14.5591L103.504 14.5765V14.9493C103.504 14.9493 103.347 15.0096 103.347 15.3021V17.2021C103.347 17.3386 103.426 17.4773 103.516 17.4933Z" fill="black"/>
<path d="M102.998 16.4913C102.963 16.2028 102.527 16.0263 102.033 15.9942C101.515 15.9541 100.965 16.0865 100.699 16.2869C100.416 16.4914 100.349 16.8601 100.471 17.1728C100.585 17.4494 100.809 17.6097 100.977 17.5937C101.158 17.5762 101.26 17.5576 101.429 17.4093C101.593 17.2609 101.907 17.0926 102.311 17.0926C102.57 17.0926 103.077 17.1217 102.998 16.4913Z" fill="black"/>
<path d="M105.568 21.4298C105.682 21.4443 105.804 21.4699 105.961 21.554C105.996 21.5831 106.129 21.7024 106.263 21.7905C106.424 21.8946 106.6 21.9668 106.792 21.9749C106.961 21.9778 107.016 21.9516 107.197 21.9068C107.342 21.8626 107.455 21.9156 107.522 22.0031C107.577 22.0752 107.612 22.2036 107.589 22.3278C107.566 22.5242 107.499 22.6846 107.432 22.7848C107.263 23.0614 107.263 23.35 107.275 23.6506C107.298 24.4724 107.353 25.0576 107.161 25.1618C107.004 25.2381 106.859 25.0615 106.655 25.0496C106.4 25.0321 106.431 25.5907 106.353 25.4344C106.286 25.3102 106.153 25.3381 106.165 25.4865C106.173 25.6348 106.365 25.8833 106.714 25.9194C107.028 25.9595 107.534 25.8391 107.636 25.3021C107.691 25.0537 107.746 24.6407 107.722 23.9993C107.711 23.2577 107.691 22.8128 107.758 22.4961C107.813 22.1834 108.06 21.4138 107.51 21.2695C107.354 21.2294 107.197 21.3015 107.083 21.3699C106.981 21.4379 106.883 21.4621 106.679 21.3699C106.49 21.2776 106.184 21.2136 105.851 21.2136C105.906 21.1054 105.937 20.953 105.984 20.7567C106.153 19.971 106.129 18.4598 105.996 17.7142C105.96 17.5658 105.85 17.5297 105.69 17.5457C105.489 17.5748 105.321 17.6298 105.242 17.7342C105.109 17.8945 105.132 18.0228 105.321 18.6321C105.525 19.2935 105.579 19.9069 105.556 20.4681C105.545 20.8008 105.501 21.0453 105.458 21.2257C105.435 21.306 105.458 21.4176 105.568 21.4298Z" fill="black"/>
<path d="M107.004 24.9774C106.859 24.9012 106.714 24.8532 106.636 24.8611C106.455 24.8698 106.365 25.0135 106.298 25.1938C106.298 25.1938 106.365 24.9492 106.309 24.7849C106.274 24.6968 106.153 24.5083 105.937 24.4763C105.937 24.4763 106.443 24.5083 106.49 24.2238C106.533 23.9431 106.533 23.5623 106.533 23.422C106.51 23.1774 106.298 22.909 106.196 22.8088C106.106 22.7125 106.051 22.6645 105.815 22.6924C105.58 22.7215 104.905 22.969 104.446 22.921C104.042 22.8809 103.704 22.6284 103.716 21.9951C103.771 22.1475 103.908 22.2997 103.994 22.3398C103.994 22.3398 104.108 22.5964 104.332 22.6725C104.579 22.7528 104.838 22.7086 104.916 22.6725C104.748 22.655 104.571 22.3958 104.626 22.3759C104.826 22.2997 105.054 22.2156 105.277 21.7585C105.356 21.5901 105.501 21.6061 105.533 21.6061C105.803 21.6352 106.027 21.7906 106.243 22.023C106.364 22.1595 106.498 22.2997 106.533 22.4599C106.568 22.5923 106.623 22.6883 106.725 22.7526C106.816 22.8128 107.161 22.8808 107.118 23.1013C107.063 23.4661 107.106 23.8028 107.118 24.1796C107.129 24.5524 107.173 25.0656 107.004 24.9774Z" fill="black"/>
<path d="M106.117 24.7848C105.984 24.5483 105.545 24.5282 105.364 24.5565C105.207 24.5797 104.905 24.7089 104.85 24.9172C104.85 24.9172 104.964 24.9975 104.984 25.1816C104.995 25.3378 104.984 25.4863 105.006 25.4983C105.042 25.5012 105.042 25.4983 105.061 25.354C105.097 25.1655 105.163 25.0655 105.266 24.9652C105.364 24.873 105.615 24.8451 105.568 24.9623C105.524 25.0746 105.513 25.1988 105.524 25.3191C105.544 25.4994 105.67 25.6518 105.701 25.5154C105.748 25.3831 105.917 25.1827 106.152 25.1707C106.152 25.1707 106.231 24.9651 106.117 24.7848Z" fill="black"/>
<path d="M104.705 25.0575C104.826 25.0575 104.85 25.3661 104.85 25.4944C104.85 25.6186 104.807 25.6308 104.76 25.6547C104.725 25.6867 104.634 25.771 104.67 25.867C104.692 25.9633 104.681 26.0474 104.568 25.9633C104.458 25.883 104.379 25.6306 104.411 25.4742C104.434 25.3218 104.556 25.0575 104.705 25.0575Z" fill="black"/>
<path d="M105.399 25.1417C105.388 25.0577 105.266 25.2258 105.231 25.3221C105.187 25.4585 105.152 25.6829 105.176 25.8232C105.211 25.9634 105.231 26.0035 105.278 25.8834C105.309 25.7551 105.446 25.6669 105.399 25.5586C105.356 25.4664 105.345 25.286 105.399 25.1417Z" fill="black"/>
<path d="M106.039 25.3501C105.894 25.4542 105.815 25.6547 105.815 25.787C105.815 25.8792 105.827 25.9354 105.882 25.9915C105.925 26.0395 105.96 26.0357 105.984 25.9194C105.992 25.8513 106.019 25.7271 106.074 25.6869C106.074 25.6869 105.992 25.5905 106.039 25.3501Z" fill="black"/>
<path d="M103.626 3.61963L103.661 4.36922H103.908L103.94 3.61963H103.626Z" fill="black"/>
<path d="M103.19 3.69189L102.908 3.82017L103.21 4.50163L103.45 4.40154L103.198 3.71608L103.19 3.69189Z" fill="black"/>
<path d="M102.547 4.04077L102.323 4.26124L102.853 4.78637L103.041 4.61007L102.57 4.06092L102.547 4.04077Z" fill="black"/>
<path d="M102.111 4.55371L101.966 4.83032L102.617 5.16704L102.739 4.9384L102.135 4.56561L102.111 4.55371Z" fill="black"/>
<path d="M101.852 5.21509L101.809 5.53174L102.539 5.60391L102.582 5.34731L101.876 5.21904L101.852 5.21509Z" fill="black"/>
<path d="M102.539 5.85645H101.797V6.15707H102.539V5.85645Z" fill="black"/>
<path d="M104.368 3.69189L104.12 4.40136L104.344 4.50145L104.658 3.81999L104.391 3.70361L104.368 3.69189Z" fill="black"/>
<path d="M105.019 4.02856L104.524 4.60984L104.705 4.79018L105.243 4.24504L105.027 4.04055L105.019 4.02856Z" fill="black"/>
<path d="M105.466 4.54565L104.819 4.93847L104.94 5.17092L105.623 4.82617L105.478 4.56177L105.466 4.54565Z" fill="black"/>
<path d="M105.737 5.21509L104.983 5.3474L105.019 5.604L105.784 5.53183L105.737 5.23923L105.737 5.21509Z" fill="black"/>
<path d="M105.031 5.85645V6.15707H105.804V5.85645H105.031Z" fill="black"/>
<path d="M103.288 5.71619C103.324 5.67198 103.347 5.67605 103.347 5.74819C103.356 5.8564 103.414 5.9768 103.504 6.02072C103.626 6.07686 103.716 6.20107 103.716 6.32938V6.7222C103.716 6.91477 103.583 6.97471 103.445 6.97471C103.3 6.97471 103.1 6.91448 103.1 6.4977C103.1 6.13292 103.179 5.85649 103.288 5.71619Z" fill="black"/>
<path d="M102.727 5.54375C102.818 5.59582 102.986 5.6601 103.155 5.59581C103.21 5.57254 103.245 5.59582 103.202 5.65196C103.143 5.7081 102.986 5.96465 102.986 6.34545V6.50164C102.986 6.56186 102.943 6.5418 102.908 6.52202C102.841 6.48595 102.637 6.24945 102.637 5.81251C102.637 5.45175 102.727 5.54375 102.727 5.54375Z" fill="black"/>
<path d="M104.277 5.71619C104.242 5.67198 104.222 5.67605 104.211 5.74819C104.211 5.8564 104.144 5.9768 104.054 6.02072C103.928 6.07686 103.85 6.20107 103.85 6.32938V6.7222C103.85 6.91477 103.975 6.97471 104.12 6.97471C104.254 6.97471 104.458 6.91448 104.458 6.4977C104.458 6.13292 104.379 5.85649 104.277 5.71619Z" fill="black"/>
<path d="M103.783 5.79638H104.085C104.12 5.79638 104.144 5.7673 104.144 5.74432V5.28332C104.144 5.26005 104.164 5.23126 104.187 5.23126H104.784C104.804 5.23126 104.804 5.19928 104.804 5.18328C104.651 4.76236 104.246 4.46973 103.783 4.46973C103.313 4.46973 102.908 4.76236 102.763 5.18328C102.752 5.20073 102.763 5.23126 102.786 5.23126H103.379C103.401 5.23126 103.422 5.26034 103.422 5.28332V5.74432C103.422 5.76759 103.45 5.79638 103.469 5.79638H103.783Z" fill="black"/>
<path d="M104.838 5.54375C104.736 5.59582 104.568 5.6601 104.411 5.59581C104.344 5.57254 104.313 5.59582 104.367 5.65196C104.411 5.7081 104.568 5.96465 104.568 6.34545V6.50164C104.579 6.56186 104.615 6.5418 104.646 6.52202C104.716 6.48595 104.928 6.24945 104.928 5.81251C104.928 5.45175 104.838 5.54375 104.838 5.54375Z" fill="black"/>
<path d="M95.939 12.2061C95.88 12.2663 95.3307 12.8315 95.3307 12.8315L94.6912 12.1741V13.4368C94.8247 13.577 95.2758 14.0341 95.3307 14.0902C95.3857 14.0259 95.939 13.4568 95.939 13.4568C95.939 13.4568 96.5118 14.042 96.5667 14.1022C96.6217 14.0501 97.0258 13.6332 97.1946 13.4608V12.2061L96.5667 12.8435C96.5667 12.8435 96.0056 12.2662 95.939 12.2061Z" fill="black"/>
<path d="M97.069 11.6489C97.1043 11.6809 97.1473 11.7091 97.1946 11.7292V10.8113L96.5667 11.4526C96.5667 11.4526 96.0056 10.8714 95.939 10.8113C95.88 10.8715 95.3307 11.4366 95.3307 11.4366L94.6912 10.7832V11.7292C94.7384 11.7147 94.7814 11.685 94.8127 11.6489C94.8127 11.6489 94.9267 11.9055 94.7225 12.0779C94.8913 12.2541 95.2758 12.643 95.3307 12.6952C95.3856 12.6312 95.9389 12.0658 95.9389 12.0658C95.9389 12.0658 96.5118 12.643 96.5667 12.7072C96.61 12.6592 96.9905 12.2742 97.171 12.0898C96.9472 11.9176 97.069 11.6489 97.069 11.6489Z" fill="black"/>
<path d="M95.939 10.6708C95.939 10.6708 96.5118 11.2521 96.5667 11.3122C96.6217 11.2642 97.0258 10.8472 97.1946 10.6748V10.4785C96.8493 10.3744 96.7669 10.2539 96.7669 10.2539C96.7669 10.2539 96.8335 10.1338 97.1946 10.0253V9.41599L96.5667 10.0574C96.5667 10.0574 96.0056 9.48013 95.939 9.41599C95.88 9.47621 95.3307 10.0453 95.3307 10.0453L94.6912 9.38794V10.0213C95.0522 10.1336 95.1149 10.2537 95.1149 10.2537C95.1149 10.2537 95.0287 10.3738 94.6912 10.4823V10.6467C94.8247 10.7869 95.2758 11.244 95.3307 11.3001C95.3857 11.2358 95.939 10.6708 95.939 10.6708Z" fill="black"/>
<path d="M95.939 7.88081C95.939 7.88081 96.5118 8.46205 96.5667 8.52619C96.6217 8.47412 97.0258 8.05716 97.1946 7.88481V6.63015L96.5667 7.26749C96.5667 7.26749 96.0056 6.68626 95.939 6.63015C95.88 6.68629 95.3307 7.25546 95.3307 7.25546L94.6912 6.60205V7.85676C94.8247 8.00104 95.2758 8.45805 95.3307 8.51416C95.3857 8.44987 95.939 7.88081 95.939 7.88081Z" fill="black"/>
<path d="M97.026 8.87507C96.9907 8.59436 97.0613 8.44614 97.1949 8.34994V8.02526L96.5671 8.66264C96.5671 8.66264 96.0059 8.0854 95.9353 8.02126C95.8803 8.08555 95.331 8.64657 95.331 8.64657L94.6914 7.99316V8.34594C94.813 8.43816 94.8916 8.58651 94.8603 8.87507C94.8603 8.87507 94.8053 8.79884 94.6914 8.76277V9.25182C94.825 9.39203 95.2761 9.85312 95.331 9.90123C95.386 9.84509 95.9353 9.27588 95.9353 9.27588C95.9353 9.27588 96.5121 9.85711 96.5671 9.92125C96.622 9.86918 97.0262 9.45224 97.1949 9.27588V8.76277C97.085 8.80292 97.026 8.87507 97.026 8.87507Z" fill="black"/>
<path d="M101.503 9.88507C101.382 9.66865 101.068 9.56838 100.687 9.68058C100.302 9.79286 99.6981 9.90517 99.3057 9.90517C98.8977 9.90517 98.6662 9.82485 98.5406 9.64072C98.474 9.52058 98.4307 9.33209 98.3287 9.15971C98.2621 9.0355 98.1169 8.92728 97.9364 8.86308C97.9364 8.86308 97.9011 8.35401 97.4184 8.39409C97.3956 8.397 97.3751 8.4057 97.3634 8.40861C97.2066 8.44468 97.1163 8.56891 97.1163 8.68527C97.1163 8.68527 97.1712 8.60902 97.3085 8.6131C97.3284 8.6131 97.3518 8.62186 97.3751 8.63058C97.4731 8.6748 97.5203 8.8269 97.4614 8.92717C97.4528 8.9359 97.4301 8.96734 97.3868 9.05141C97.3082 9.19162 97.3279 9.31204 97.364 9.38413C97.364 9.38413 97.5209 9.27589 97.6779 9.31604C97.6779 9.31604 97.623 9.29279 97.6113 9.1997C97.5885 9.10749 97.7132 9.06327 97.8035 9.06734C97.9251 9.07025 98.1605 9.13946 98.2626 9.42008C98.3528 9.69671 98.4628 9.99334 98.9336 10.0935C99.2279 10.1497 99.6438 10.2099 99.8439 10.2619C100.068 10.3181 100.272 10.3984 100.295 10.5145C100.304 10.6346 100.134 10.735 99.9577 10.783C99.8008 10.8309 99.4868 10.8711 99.271 10.8711C98.8355 10.8711 98.5412 10.835 98.3293 10.9592C98.251 11.0034 98.1607 11.0793 98.1175 11.1396C97.9919 11.2958 97.878 11.3481 97.7918 11.3679C97.6779 11.3912 97.5996 11.3237 97.6229 11.2277C97.6429 11.1596 97.6778 11.1314 97.6778 11.1314C97.4856 11.1605 97.364 11.0674 97.364 11.0674C97.3287 11.1436 97.3167 11.2519 97.3867 11.3721C97.4067 11.4041 97.4534 11.4803 97.4534 11.4803C97.52 11.5967 97.4966 11.7688 97.3867 11.833C97.364 11.8418 97.3398 11.8505 97.3161 11.8534C97.1945 11.8767 97.116 11.8133 97.116 11.8133C97.1387 11.9817 97.2495 12.0579 97.3867 12.0658C97.3953 12.0658 97.4067 12.0658 97.4181 12.0658C97.8575 12.0658 97.9909 11.5767 97.9909 11.5767C98.1478 11.248 98.3402 11.1518 98.454 11.1077C98.5875 11.0597 98.7443 11.0516 99.1564 11.1438C99.5174 11.2241 99.843 11.2561 100.126 11.2401C100.918 11.188 101.26 11.0036 101.428 10.743C101.597 10.4824 101.617 10.0935 101.503 9.88507Z" fill="black"/>
<path d="M97.3282 10.5106C97.3082 10.5426 97.2968 10.5908 97.3082 10.6708C97.3196 10.8032 97.4651 10.9755 97.7438 10.9755C98.0459 10.9755 98.352 10.7631 98.352 10.2379C98.352 9.70476 98.0459 9.49634 97.7438 9.49634C97.4653 9.49634 97.32 9.66069 97.3082 9.805C97.2968 9.86899 97.3082 9.92133 97.3282 9.9734C97.5637 9.9734 97.7559 10.0775 97.7559 10.234C97.7559 10.4304 97.5754 10.5305 97.3282 10.5106Z" fill="black"/>
<path d="M96.9238 10.25C97.069 10.3341 97.2181 10.3701 97.2966 10.3902C97.3166 10.3931 97.3399 10.3989 97.3399 10.3989C97.3989 10.4018 97.6224 10.4222 97.6224 10.2506C97.6224 10.1104 97.4419 10.0981 97.3399 10.0981C97.3399 10.0981 97.3171 10.0981 97.3046 10.101C97.23 10.1127 97.0846 10.1578 96.9238 10.25Z" fill="black"/>
<path d="M103.83 16.8962V17.0445C103.83 17.0532 103.841 17.0649 103.85 17.0649H104.097C104.108 17.0649 104.109 17.0532 104.109 17.0445V16.7801C104.109 16.7714 104.108 16.7626 104.097 16.7626H103.85C103.841 16.7626 103.83 16.7714 103.83 16.7801V16.9043L103.536 16.9072V16.2617H103.83V16.4302C103.83 16.4389 103.841 16.4476 103.85 16.4476H104.097C104.108 16.4476 104.109 16.4389 104.109 16.4302V16.1657C104.109 16.157 104.108 16.1454 104.097 16.1454H103.85C103.841 16.1454 103.83 16.157 103.83 16.1657V16.2739H103.536V15.6967H103.83V15.8529C103.83 15.8704 103.841 15.8732 103.85 15.8732H104.097C104.108 15.8732 104.108 15.8704 104.108 15.8529V15.5923C104.108 15.5836 104.108 15.5748 104.097 15.5748H103.85C103.841 15.5748 103.83 15.5836 103.83 15.5923V15.7206H103.536V15.3197C103.536 15.2234 103.595 15.1434 103.638 15.1233L103.669 15.103V15.055H103.83V15.2554C103.83 15.2642 103.841 15.2729 103.85 15.2729H104.097C104.108 15.2729 104.108 15.2642 104.108 15.2554V14.9988C104.108 14.9843 104.108 14.9756 104.097 14.9756H103.85C103.841 14.9756 103.83 14.9843 103.83 14.9988V15.0669H103.669V14.6781C103.669 14.6781 104.458 14.8506 104.917 14.2492C104.952 14.2201 104.983 14.2492 104.983 14.3094C104.983 14.3737 104.963 14.6702 105.207 14.7183C105.207 14.7183 104.952 14.8146 104.815 14.999C104.705 15.1473 104.614 15.4038 104.614 15.8889V16.5142C104.614 16.9031 104.555 17.2919 104.32 17.2919C103.806 17.2919 103.669 17.4083 103.669 17.4083C103.559 17.4083 103.535 17.2078 103.535 17.0875V16.899L103.83 16.8962Z" fill="black"/>
<path d="M106.577 22.0952C106.746 22.1555 106.926 22.1595 107.083 22.1127C107.252 22.0565 107.354 22.0807 107.409 22.1418C107.444 22.206 107.431 22.3983 107.4 22.4905C107.353 22.5987 107.341 22.6549 107.274 22.7471C107.239 22.7951 107.173 22.7951 107.118 22.7558C107.027 22.6918 106.98 22.6677 106.913 22.6517C106.858 22.6313 106.768 22.5955 106.737 22.4992C106.702 22.4111 106.611 22.2185 106.556 22.1585C106.497 22.0945 106.521 22.0744 106.576 22.0983" fill="black"/>
<path d="M100.416 17.3811C100.495 17.5655 100.663 17.6938 100.899 17.7499C100.946 17.7615 101.201 17.7295 101.26 17.6818C101.26 17.6818 100.856 18.0787 100.82 19.197C100.82 19.3655 100.809 19.4696 100.82 19.63C100.82 19.6943 100.856 19.9266 100.596 19.8345C100.361 19.7423 99.9451 19.618 99.6744 19.614C99.18 19.6052 98.7562 19.7943 98.6306 19.8304C98.4737 19.8825 98.4068 19.8537 98.3718 19.8188C98.2815 19.7146 98.6974 19.3978 99.5293 19.3537C99.8118 19.3421 100.102 19.3334 100.192 19.3247C100.302 19.313 100.495 19.2604 100.585 19.096C100.663 18.9596 100.663 18.6711 100.596 18.3785C100.549 18.1461 100.428 17.6497 100.416 17.3811Z" fill="black"/>
<path d="M91.9641 10.5266C91.9641 10.6028 92.3094 10.7389 92.9176 10.6909C93.0629 10.6764 93.31 10.6909 93.412 10.7229C93.412 10.7229 93.2981 10.4344 93.3571 10.1658C93.3571 10.1658 93.0432 10.2941 92.8627 10.326C92.5919 10.3703 91.9641 10.4224 91.9641 10.5266Z" fill="black"/>
<path d="M99.9689 10.5266C99.9689 10.6028 99.6079 10.7389 99.0115 10.6909C98.8546 10.6764 98.6073 10.6909 98.521 10.7229C98.521 10.7229 98.6192 10.4344 98.576 10.1658C98.576 10.1658 98.8781 10.2941 99.0704 10.326C99.3255 10.3703 99.9689 10.4224 99.9689 10.5266Z" fill="black"/>
<path d="M97.7323 18.6198C97.6773 18.5034 97.4734 18.3952 97.3752 18.3952C97.3752 18.3952 97.3638 18.3981 97.3524 18.3981C97.2268 18.401 97.1602 18.4342 97.062 18.5183C97.062 18.5183 97.1956 18.5703 97.2935 18.6908C97.3288 18.7268 97.3641 18.7748 97.3995 18.8272C97.3995 18.8272 97.5203 18.6681 97.7323 18.6198ZM97.3524 17.2116C97.3637 17.2233 97.3751 17.2262 97.3993 17.2407C97.4739 17.3047 97.5209 17.4571 97.5209 17.4571C97.5209 17.4571 97.6348 17.3047 97.9015 17.2847C97.78 17.0761 97.5562 16.972 97.4425 16.972C97.4197 16.972 97.3992 16.972 97.3758 16.9749C97.2856 16.9923 97.1953 17.0351 97.1167 17.1032C97.1167 17.1032 97.2188 17.1063 97.3524 17.2116ZM97.6543 17.8688C97.5877 17.7446 97.4974 17.6401 97.4072 17.6081C97.3986 17.5936 97.3639 17.5878 97.3405 17.5791C97.1836 17.5471 97.0621 17.6512 97.0621 17.7114C97.176 17.7405 97.2503 17.7996 97.3092 17.8598C97.3758 17.9241 97.4074 17.984 97.4074 17.984C97.5094 17.8877 97.6543 17.8688 97.6543 17.8688ZM97.7329 17.6951C97.8349 17.7993 97.8232 17.8554 97.8232 17.8554C98.1056 17.8671 98.294 18.0878 98.294 18.0878C98.353 17.9115 98.396 17.6429 98.1841 17.4825C97.9683 17.3263 97.6662 17.4651 97.5877 17.5387C97.5091 17.6149 97.623 17.591 97.7329 17.6951ZM97.4621 18.1759C97.6543 18.1847 97.8349 18.4284 97.9134 18.5968C98.0153 18.5607 98.3724 18.7571 98.3293 18.4365C98.294 18.2442 98.1251 18.0197 97.9251 17.9836C97.7133 17.9434 97.4857 18.0356 97.4072 18.0999C97.3522 18.14 97.3639 18.164 97.4621 18.1759ZM102.426 17.2702C101.751 17.2702 101.417 17.6991 101.28 17.9236C100.99 18.4046 100.966 19.3626 100.99 19.6072C101.025 19.9399 100.868 20.0161 100.774 20.0281C100.672 20.0456 100.538 20.0135 100.429 19.9559C100.024 19.7834 99.5653 19.7154 99.1023 19.8597C98.9454 19.9039 98.5765 20.0761 98.3607 20.0121C98.1921 19.96 98.1055 19.8437 98.2155 19.6594C98.396 19.3507 99.2357 19.1542 99.8321 19.1783C100.068 19.187 100.35 19.1696 100.44 18.9898C100.519 18.8496 100.507 18.7091 100.362 18.0719C100.146 17.1138 100.303 16.6208 100.303 16.6208C100.127 16.8093 100.091 17.0898 100.091 17.3143C100.068 17.6991 100.127 18.2763 100.182 18.4807C100.236 18.6893 100.217 18.8495 99.899 18.9297C99.5969 19.0018 99.3261 19.0379 99.0004 18.9818C98.7573 18.9375 98.51 18.5849 98.4747 18.3885C98.4861 18.4566 98.4861 18.641 98.3727 18.7252C98.2825 18.7895 98.1842 18.7813 98.0588 18.7485C97.9252 18.7194 97.69 18.7005 97.4859 18.9047C97.2937 19.1092 97.3094 19.514 97.4073 19.7264C97.5093 19.951 97.733 20.2476 98.1372 20.2476C98.5649 20.2476 99.3732 20.1874 99.7538 20.2074C100.17 20.2278 100.37 20.2755 100.629 20.2956C100.774 20.3043 100.99 20.2636 101.111 20.3247C101.225 20.3727 101.347 20.3886 101.449 20.3217C101.551 20.2577 101.586 20.0972 101.563 19.9569C101.563 19.9569 101.473 19.2675 101.516 18.6301C101.538 18.4658 101.594 18.3695 101.798 18.4818C101.998 18.594 102.304 18.6903 102.559 18.6903C102.806 18.6903 103.101 18.574 103.203 17.9968C103.246 17.7243 103.101 17.2702 102.426 17.2702ZM94.5349 18.3977C94.5235 18.3977 94.5121 18.3948 94.5036 18.3948C94.4094 18.3948 94.2093 18.503 94.1544 18.6194C94.3662 18.6674 94.5036 18.828 94.5036 18.828C94.5235 18.7759 94.5586 18.7279 94.5899 18.6915C94.6918 18.5714 94.8134 18.519 94.8134 18.519C94.7271 18.435 94.6565 18.4015 94.5349 18.3977ZM94.366 17.4569C94.366 17.4569 94.4093 17.3044 94.5033 17.2405C94.5118 17.2288 94.5232 17.2259 94.5346 17.2114C94.6682 17.1072 94.7701 17.1032 94.7701 17.1032C94.6918 17.0351 94.6013 16.9909 94.5113 16.9749C94.4885 16.972 94.468 16.972 94.4446 16.972C94.3347 16.972 94.0954 17.0761 93.9973 17.2846C94.2525 17.305 94.366 17.4569 94.366 17.4569ZM94.8292 17.7137C94.8292 17.6534 94.7036 17.5493 94.5467 17.5813C94.5239 17.5901 94.5034 17.593 94.4684 17.6104C94.3901 17.6424 94.2998 17.7468 94.2329 17.871C94.2329 17.871 94.3782 17.8914 94.4761 17.9874C94.4761 17.9874 94.5114 17.9272 94.578 17.8632C94.637 17.803 94.7153 17.7419 94.8292 17.7137ZM94.064 17.8591C94.064 17.8591 94.0526 17.803 94.1543 17.6988C94.2642 17.5947 94.3781 17.6186 94.2995 17.5426C94.2329 17.4705 93.9189 17.3303 93.7031 17.4865C93.4912 17.6468 93.5342 17.9154 93.5931 18.0918C93.5931 18.0918 93.7814 17.871 94.064 17.8591ZM93.9738 17.9876C93.7619 18.0237 93.5931 18.2483 93.5578 18.4406C93.5145 18.7613 93.8717 18.5649 93.9738 18.6009C94.0404 18.4325 94.2326 18.188 94.4211 18.18C94.523 18.1684 94.535 18.1439 94.476 18.1038C94.4014 18.0395 94.1739 17.9478 93.9738 17.9876ZM93.8285 18.7531C93.703 18.7851 93.6048 18.7932 93.5147 18.7298C93.4008 18.6457 93.4007 18.4613 93.4127 18.3931C93.3774 18.5894 93.1302 18.9422 92.8712 18.9863C92.5612 19.0425 92.2905 19.0067 91.9883 18.9343C91.6744 18.854 91.6509 18.6937 91.7059 18.4853C91.7531 18.2808 91.8198 17.7037 91.7962 17.3188C91.7962 17.0943 91.7608 16.8138 91.5843 16.6253C91.5843 16.6253 91.7412 17.1184 91.5253 18.0764C91.3801 18.7138 91.3684 18.8541 91.4467 18.9944C91.537 19.1748 91.8196 19.1907 92.055 19.1829C92.6593 19.1596 93.4911 19.3554 93.6716 19.6639C93.7815 19.8484 93.6916 19.9646 93.5264 20.0167C93.3106 20.081 92.9378 19.9085 92.7848 19.8642C92.3257 19.72 91.8627 19.788 91.4585 19.9605C91.3486 20.0167 91.1997 20.0486 91.1093 20.0326C91.023 20.021 90.8621 19.9445 90.8974 19.6118C90.9202 19.3671 90.8974 18.4092 90.6071 17.9282C90.4698 17.7036 90.1323 17.2748 89.4613 17.2748C88.7864 17.2748 88.6412 17.7277 88.6883 18.0003C88.7746 18.5776 89.0689 18.6938 89.3239 18.6938C89.5828 18.6938 89.889 18.5975 90.0891 18.4853C90.2893 18.373 90.3479 18.4678 90.3599 18.6336C90.4148 19.271 90.3166 19.9604 90.3166 19.9604C90.2995 20.1006 90.3365 20.2611 90.4382 20.3252C90.5401 20.3933 90.662 20.3773 90.7756 20.3281C90.8972 20.2679 91.1091 20.3078 91.2583 20.299C91.5251 20.2787 91.7174 20.231 92.1333 20.2109C92.5139 20.1905 93.3104 20.251 93.7499 20.251C94.1541 20.251 94.3778 19.9544 94.4759 19.7299C94.5778 19.5176 94.6014 19.1126 94.4012 18.9082C94.1971 18.7037 93.9502 18.7249 93.8285 18.7531ZM95.9394 19.1728C95.8805 19.2371 95.3313 19.8022 95.3313 19.8022L94.6917 19.1448V20.4035C94.8289 20.5437 95.2763 21.0048 95.3313 21.0569C95.3862 20.9967 95.9394 20.4315 95.9394 20.4315C95.9394 20.4315 96.5123 21.0088 96.5672 21.0689C96.6222 21.0209 97.0264 20.6039 97.1951 20.4315V19.1728L96.5673 19.8182C96.5673 19.8182 96.0061 19.237 95.9394 19.1728ZM96.9243 18.5916C96.9471 18.4593 97.0616 18.3711 97.1952 18.3149V17.9101C97.1752 17.8868 97.1479 17.87 97.1166 17.854L96.5672 18.4232L96.0178 17.854L95.9706 17.8097L95.9392 17.7807L95.8686 17.8487C95.7038 18.0171 95.3311 18.4059 95.3311 18.4059L94.7817 17.8447C94.7464 17.8593 94.7267 17.8808 94.6914 17.9128V18.3137C94.8287 18.3698 94.9386 18.4579 94.9622 18.5903C94.9622 18.5903 94.8053 18.5932 94.6914 18.7465V19.0109C94.8287 19.1473 95.2761 19.6122 95.331 19.6603C95.386 19.6001 95.9392 19.0349 95.9392 19.0349C95.9392 19.0349 96.5121 19.6162 96.5671 19.6763C96.622 19.6242 97.0262 19.2073 97.1949 19.0349V18.7423C97.0733 18.594 96.9243 18.5916 96.9243 18.5916ZM94.9268 17.1909C94.9268 17.1909 94.8052 17.1793 94.6913 17.2511V17.4675C94.8482 17.5117 94.9385 17.652 94.9622 17.7963C94.9622 17.7963 94.9268 17.7962 94.8719 17.8079L94.9152 17.844L95.2997 18.2368C95.3083 18.2542 95.3197 18.2601 95.331 18.2688C95.3663 18.2327 95.5782 18.0163 95.7352 17.8479C95.7465 17.8363 95.7705 17.8247 95.7785 17.8078C95.8687 17.7115 95.9393 17.6434 95.9393 17.6434L96.1082 17.8078L96.1515 17.852L96.5674 18.2809C96.5987 18.2489 96.8029 18.0363 96.9833 17.852C97.0061 17.8375 97.0147 17.8229 97.0266 17.8078C96.9717 17.7962 96.9246 17.7961 96.9246 17.7961C96.9474 17.6518 97.0386 17.5154 97.1955 17.4714V17.2469C97.0739 17.1788 96.9483 17.1907 96.9483 17.1907C96.9711 17.0584 97.0739 16.9703 97.1955 16.9063V16.3851L96.5676 17.0265C96.5676 17.0265 96.0065 16.4453 95.9398 16.3851C95.8809 16.4453 95.3316 17.0105 95.3316 17.0105L94.692 16.3571V16.9022C94.8136 16.9703 94.9152 17.0586 94.9268 17.1909ZM95.3316 16.8741C95.3866 16.8098 95.9399 16.2448 95.9399 16.2448C95.9399 16.2448 96.5127 16.826 96.5677 16.8862C96.6226 16.8382 97.0268 16.4171 97.1955 16.2488V14.9901L96.5677 15.6275C96.5677 15.6275 96.0066 15.0502 95.9399 14.9901C95.8809 15.0503 95.3316 15.6194 95.3316 15.6194L94.6921 14.9661V16.2207C94.8293 16.3609 95.2767 16.822 95.3316 16.8741Z" fill="black"/>
</svg>
