<svg width="113" height="33" viewBox="0 0 113 33" fill="none" xmlns="http://www.w3.org/2000/svg">
<path d="M1.70167 2.03393C1.70167 1.38739 1.54717 1.08055 1.05058 1.08055H0.154497C0.0308993 1.08055 0 1.04987 0 0.896455V0.466889C0 0.344156 0.0308993 0.31347 0.185396 0.31347C0.370792 0.31347 1.29998 0.37484 3.18925 0.37484C4.83133 0.37484 5.76052 0.31347 5.97681 0.31347C6.10041 0.31347 6.13131 0.344156 6.13131 0.436206V0.929332C6.13131 1.05207 6.10041 1.08275 5.97681 1.08275H5.17122C4.58193 1.08275 4.24204 1.42026 4.21114 1.82134C4.18024 2.06681 4.14934 3.20429 4.14934 4.34396V6.74164C4.14934 7.69502 4.18024 9.07797 4.21114 9.69382C4.27294 10.5858 4.42743 11.4778 4.89313 12.0915C5.54422 12.9835 6.59701 13.2904 7.5262 13.2904C8.42448 13.2904 9.50817 12.9528 10.1284 12.3677C10.8722 11.6291 11.2429 10.5223 11.2429 9.10865V5.63266C11.2429 4.0941 11.0884 2.37364 11.0266 1.94188C10.9649 1.44876 10.6559 1.08055 10.2211 1.08055H9.50817C9.38457 1.08055 9.35367 1.01919 9.35367 0.957822V0.464696C9.35367 0.341962 9.38457 0.311279 9.50817 0.311279C9.69356 0.311279 10.5919 0.372646 11.8918 0.372646C13.0991 0.372646 13.7193 0.311279 13.8738 0.311279C14.0592 0.311279 14.0592 0.372645 14.0592 0.464696V0.894265C14.0592 1.017 14.0283 1.07836 13.9356 1.07836H13.2227C12.5098 1.07836 12.448 1.63286 12.4171 1.81696C12.3862 2.06242 12.3862 4.73846 12.3862 5.01461C12.3862 5.29076 12.3553 8.64401 12.2626 9.41329C12.139 11.0132 11.6733 12.1814 10.6205 13.1347C9.81495 13.8733 8.54587 14.3336 7.08919 14.3336C6.16 14.3336 5.01452 14.1802 4.30163 13.8733C3.18705 13.4131 2.38146 12.5211 2.01066 11.2894C1.73257 10.428 1.67077 9.16783 1.67077 6.64521V2.03174H1.70167V2.03393Z" fill="#943651"/>
<path d="M14.6772 9.72218C14.739 9.72218 14.8008 9.75286 14.8008 9.87559C14.8317 10.4915 14.9862 11.2279 15.5446 12.0892C16.1339 13.0119 17.1557 13.4721 18.1158 13.4721C19.1686 13.4721 20.6562 12.8256 20.6562 11.2279C20.6562 9.44383 19.8506 8.86085 17.7759 8.09157C17.1557 7.8461 15.8558 7.32229 14.9266 6.46097C14.2755 5.84511 13.9665 4.86105 13.9665 3.69289C13.9665 2.61678 14.3991 1.72477 15.3283 0.986172C16.103 0.339629 16.9703 0.0634766 18.0849 0.0634766C19.354 0.0634766 20.1596 0.370312 20.5326 0.523729C20.718 0.615779 20.8416 0.554413 20.9343 0.462362L21.1815 0.216896C21.2742 0.124846 21.336 0.0941598 21.4596 0.0941598C21.5832 0.0941598 21.6141 0.216895 21.6141 0.400996C21.6141 0.70783 21.9231 3.41454 21.9231 3.59864C21.9231 3.66001 21.8922 3.72138 21.7995 3.72138L21.4905 3.81343C21.4287 3.84411 21.336 3.81343 21.3051 3.69069C21.1197 3.1362 20.8085 2.36912 20.0978 1.63052C19.6012 1.07603 18.9832 0.830562 18.0849 0.830562C16.5355 0.830562 15.9176 2.06009 15.9176 2.768C15.9176 3.41455 15.9794 3.99753 16.476 4.49066C16.9726 4.98378 18.0562 5.44403 18.8596 5.6895C19.9742 6.02702 20.9343 6.42809 21.6472 7.19737C22.2674 7.84391 22.6073 8.67456 22.6073 9.96545C22.6073 12.3325 21.0579 14.2392 18.4888 14.2392C16.8776 14.2392 15.9485 13.9017 15.176 13.3165C14.9288 13.1631 14.8361 13.1017 14.7125 13.1017C14.5889 13.1017 14.5271 13.2552 14.4035 13.4393C14.2799 13.6234 14.2181 13.6847 14.0636 13.6847C13.9091 13.6847 13.8164 13.562 13.8164 13.3779C13.8473 13.1324 14.1254 10.0268 14.1563 9.77916C14.1872 9.65642 14.1872 9.62574 14.2799 9.62574L14.6772 9.72218Z" fill="#943651"/>
<path d="M35.8608 10.8903C35.9226 10.9517 35.9226 11.0131 35.8917 11.0744C34.7153 12.7357 32.8569 14.3335 30.1002 14.3335C27.6217 14.3335 26.1981 13.5949 24.9908 12.5188C23.5672 11.2585 22.8853 9.01208 22.8853 7.29162C22.8853 5.38486 23.5054 3.57016 24.8672 2.12584C25.92 1.01905 27.593 0.0656738 29.9149 0.0656738C31.7114 0.0656738 33.135 0.620165 33.8479 0.988366C34.126 1.14178 34.1878 1.14178 34.2496 0.988366L34.4041 0.49524C34.435 0.372506 34.4659 0.372507 34.7131 0.372507C34.9603 0.372507 34.9912 0.403192 34.9912 0.679343C34.9912 1.01686 35.3929 4.12465 35.4547 4.70763C35.4856 4.83037 35.4547 4.89174 35.3929 4.89174L35.0221 5.01447C34.9294 5.04515 34.8676 4.98378 34.8058 4.83037C34.5586 4.12246 34.0929 3.16908 33.2873 2.30775C32.4199 1.50779 31.4289 0.894125 29.9126 0.894125C26.7852 0.894125 25.5161 3.66221 25.5161 6.46097C25.5161 7.65981 25.856 9.93696 27.3127 11.4733C28.5818 12.8256 29.7273 12.9812 30.6564 12.9812C32.7929 12.9812 34.4968 11.9051 35.3024 10.7369C35.3951 10.6142 35.4878 10.5528 35.5496 10.6142L35.8608 10.8903Z" fill="#943651"/>
<path d="M39.2068 13.5051C38.9596 13.321 38.836 13.2596 38.7433 13.2596C38.6197 13.2596 38.5579 13.413 38.4344 13.5971C38.3108 13.8119 38.2181 13.8426 38.0945 13.8426C37.9709 13.8426 37.8782 13.7505 37.9091 13.5358C38.0018 13.0426 38.1872 10.5529 38.249 9.96772C38.2799 9.84499 38.3108 9.84499 38.4035 9.84499L38.7124 9.87567C38.8051 9.87567 38.836 9.90636 38.836 10.0291C38.8669 10.6449 38.8978 11.32 39.5489 12.304C40.1382 13.2267 41.2219 13.7484 42.3365 13.7484C43.5129 13.7484 45.0314 13.0098 45.0314 11.2564C45.0314 9.22694 43.5769 8.48835 41.9657 7.93604C41.3455 7.72126 39.9219 7.22813 39.0854 6.33612C38.4344 5.68958 38.0945 4.76689 38.0945 3.47599C38.0945 2.49193 38.7147 1.53855 39.3326 0.953379C40.0455 0.276152 41.0365 0 42.1202 0C43.2657 0 44.1331 0.337517 44.473 0.493126C44.6584 0.585176 44.7511 0.585176 44.8438 0.462443L45.091 0.216977C45.1837 0.124926 45.2454 0.0942403 45.3381 0.0942403C45.4308 0.0942403 45.4926 0.247659 45.4926 0.43176C45.4926 1.10899 45.7398 3.13847 45.7707 3.56804C45.7707 3.66009 45.7398 3.69077 45.678 3.72146L45.4308 3.78282C45.369 3.81351 45.3381 3.78282 45.3072 3.72146C45.1528 3.13628 44.9056 2.3692 44.0691 1.53855C43.5416 0.953378 42.8309 0.677226 41.9017 0.677226C40.136 0.677226 39.518 1.96812 39.518 2.98287C39.518 3.53736 39.6416 4.18171 40.1382 4.70552C40.7275 5.2907 41.8112 5.72026 42.3983 5.87368C43.7601 6.30325 44.8769 6.64296 45.5876 7.50429C46.115 8.12014 46.4549 8.88723 46.4549 10.1803C46.4549 12.5166 45.0314 14.4848 42.3983 14.4848C40.9703 14.5505 39.9793 14.1209 39.2068 13.5051Z" fill="black"/>
<path d="M48.7128 9.47683C48.7128 10.5529 49.1763 11.7518 49.7347 12.4597C50.3858 13.321 51.2223 13.4744 51.902 13.4744C52.893 13.4744 53.4205 13.2597 54.0694 12.6131C54.1003 12.5824 54.1621 12.5517 54.2239 12.6131L54.4093 12.7972C54.502 12.8893 54.502 12.9199 54.4093 13.0427C53.82 13.6892 52.5509 14.4256 51.22 14.4256C50.1673 14.4256 49.0527 14.1802 48.1544 13.0427C47.4106 12.0893 47.2561 11.2587 47.2561 10.3666C47.2561 8.061 48.8982 5.75317 51.4981 5.75317C53.5728 5.75317 54.193 6.92134 54.193 7.35309C54.1621 7.81335 53.884 8.03032 53.4492 8.03032C52.9857 8.03032 52.6436 7.78485 52.3655 7.23036C51.9329 6.4304 51.4981 6.36903 51.0347 6.36903C49.9201 6.43259 48.7128 7.44734 48.7128 9.47683Z" fill="black"/>
<path d="M56.3318 3.51108C56.3318 2.31223 56.0846 2.09745 55.3717 1.84979L55.0318 1.72706C54.9082 1.69637 54.9082 1.66569 54.9082 1.60432V1.42022C54.9082 1.32817 54.97 1.32817 55.1554 1.23612L57.2301 0.160008C57.3846 0.0679579 57.5391 0.0065918 57.6936 0.0065918C57.8172 0.0065918 57.879 0.160009 57.8481 0.499718C57.8172 0.837235 57.7863 4.83485 57.7863 5.81891V7.07912H57.879C58.5609 6.24847 59.7373 5.78822 60.6047 5.78822C61.4412 5.78822 61.9974 6.03369 62.5558 6.58818C63.4541 7.41883 63.4232 8.43357 63.4232 9.479V10.6165C63.4232 11.7233 63.4541 12.9528 63.4541 13.3232C63.4541 13.5687 63.7631 13.63 64.1979 13.63H64.5378C64.6923 13.63 64.7541 13.6607 64.7541 13.8141V14.121C64.7541 14.2744 64.7232 14.3664 64.5996 14.3664C64.4451 14.3664 63.8249 14.3051 62.7103 14.3051C61.7502 14.3051 61.0373 14.3664 60.8519 14.3664C60.7283 14.3664 60.6665 14.3051 60.6665 14.1516V13.8141C60.6665 13.7221 60.6974 13.6607 60.7901 13.6607H61.2536C61.5935 13.6607 61.9974 13.63 61.9974 13.2925C62.0283 13.0164 61.9974 11.9709 61.9974 11.3551V9.75515C61.9974 8.64835 61.9047 7.87908 61.3463 7.32458C60.9446 6.95638 60.5407 6.77009 60.0463 6.77009C59.457 6.77009 58.7463 6.95419 58.1879 7.60073C58.0026 7.81552 57.7863 8.21659 57.7863 8.55411V12.8586C57.7863 13.5051 57.8481 13.6585 58.2188 13.6585H58.8081C58.9317 13.6585 59.0244 13.6892 59.0244 13.8119V14.1495C59.0244 14.2722 58.9935 14.3642 58.8699 14.3642C58.7154 14.3642 57.9099 14.3029 56.9807 14.3029C55.9897 14.3029 55.2459 14.3642 55.0605 14.3642C54.9987 14.3642 54.9369 14.3029 54.9369 14.1801V13.8119C54.9369 13.6585 55.0296 13.6585 55.2459 13.6585H55.6476C55.9566 13.6585 56.2678 13.5665 56.2987 13.3517C56.3605 12.9835 56.3605 10.7984 56.3605 9.53817L56.3318 3.51108Z" fill="black"/>
<path d="M66.0561 13.1368C65.1578 12.0607 64.9724 11.3221 64.9724 9.93919C64.9724 8.92445 65.4999 7.66423 66.6763 6.77222C67.6982 5.97226 68.6892 5.81885 69.3403 5.81885C70.4239 5.81885 71.5076 6.37334 72.1278 6.95633C73.0261 7.84834 73.4896 8.89376 73.4896 10.154C73.4896 12.3062 71.5385 14.4891 69.124 14.4891C68.1308 14.4891 66.8926 14.1209 66.0561 13.1368ZM71.7857 9.96768C71.7857 7.78478 70.1745 6.39964 69.1527 6.39964C68.6252 6.39964 68.0999 6.52237 67.6342 7.0155C66.8595 7.81546 66.5814 8.61542 66.5814 10.1211C66.5814 11.2279 66.705 11.9665 67.3252 12.8892C67.7887 13.5357 68.3471 13.9039 69.2762 13.9039C70.8256 13.9039 71.7857 12.0585 71.7857 9.96768Z" fill="black"/>
<path d="M75.1603 13.1368C74.2621 12.0607 74.0767 11.3221 74.0767 9.93919C74.0767 8.92445 74.6042 7.66423 75.7805 6.77222C76.8024 5.97226 77.7934 5.81885 78.4445 5.81885C79.5282 5.81885 80.6428 6.37334 81.2321 6.95633C82.1304 7.84834 82.5938 8.89376 82.5938 10.154C82.5938 12.3062 80.6428 14.4891 78.1973 14.4891C77.2041 14.4891 75.9968 14.1209 75.1603 13.1368ZM80.89 9.96768C80.89 7.78478 79.2788 6.39964 78.2569 6.39964C77.7294 6.39964 77.2041 6.52237 76.7384 7.0155C75.9637 7.81546 75.6856 8.61542 75.6856 10.1211C75.6856 11.2279 75.8092 11.9665 76.4294 12.8892C76.8929 13.5357 77.4513 13.9039 78.3805 13.9039C79.899 13.9039 80.89 12.0585 80.89 9.96768Z" fill="black"/>
<path d="M85.7832 8.36993C85.7832 9.38467 85.7832 12.3675 85.8141 12.9834C85.845 13.3209 85.9068 13.5993 86.3416 13.5993H87.2399C87.4253 13.5993 87.4562 13.6606 87.4562 13.7834V14.1209C87.4562 14.2436 87.4253 14.305 87.3326 14.305C87.209 14.305 86.3107 14.2436 85.1034 14.2436C83.8343 14.2436 83.0287 14.305 82.8742 14.305C82.7815 14.305 82.7197 14.2129 82.7197 14.1209V13.7834C82.7197 13.6606 82.7506 13.5993 82.9669 13.5993H83.927C84.1433 13.5993 84.3287 13.4765 84.3596 13.1061C84.3905 12.4903 84.3905 9.10852 84.3905 7.97104V6.74151C84.3905 5.35857 84.3596 3.54387 84.3287 3.05074C84.2978 2.37351 83.9579 2.06668 83.3377 1.88258L82.936 1.72916C82.8433 1.69848 82.8124 1.6678 82.8124 1.63711V1.4837C82.8124 1.42233 82.8742 1.39165 82.9978 1.36096C83.6798 1.05413 84.5781 0.683736 85.3197 0.223485C85.5051 0.100751 85.6287 0.0700684 85.7214 0.0700684C85.8759 0.0700684 85.9068 0.162117 85.8759 0.438268C85.845 1.51438 85.7832 5.60404 85.7832 6.71083V8.36993Z" fill="black"/>
<path d="M2.35273 31.6193C1.42354 30.5431 1.26904 29.8046 1.26904 28.4216C1.26904 27.4069 1.79654 26.1467 2.97292 25.2546C3.99481 24.4547 4.98579 24.3013 5.63689 24.3013C6.72057 24.3013 7.80425 24.8558 8.42445 25.4387C9.32273 26.3308 9.78622 27.3762 9.78622 28.6364C9.78622 30.7886 7.83515 32.9715 5.38969 32.9715C4.3965 32.9715 3.18922 32.6033 2.35273 31.6193ZM8.08235 28.4501C8.08235 26.2672 6.47117 24.8821 5.44928 24.8821C4.92179 24.8821 4.3965 25.0048 3.9308 25.4979C3.15611 26.2979 2.87802 27.0978 2.87802 28.6035C2.87802 29.7103 3.00161 30.4489 3.62181 31.3716C4.0853 32.0182 4.64369 32.3863 5.57288 32.3863C7.09136 32.3863 8.08235 30.541 8.08235 28.4501Z" fill="black"/>
<path d="M11.6424 25.4671H10.2806C10.1879 25.4671 10.157 25.4364 10.1879 25.2523L10.2806 24.6672C10.3115 24.5444 10.3733 24.5444 10.5278 24.5444H11.6733V24.1762C11.6733 22.2388 12.2317 20.9479 13.0042 20.0866C14.057 18.9491 15.1406 18.5173 16.2552 18.5173C17.1844 18.5173 18.0518 18.8855 18.0518 19.6241C18.0518 20.0844 17.5243 20.4855 17.2153 20.4855C17.0299 20.4855 16.8136 20.4548 16.6569 20.3627C16.4715 20.2707 16.2552 19.9945 16.1934 19.9025C15.9462 19.5956 15.6659 19.4422 15.2951 19.4422C14.7676 19.4422 14.2424 19.565 13.8076 20.1194C13.0638 21.0421 13.1256 22.7648 13.1256 24.1477V24.5466H15.5092C15.6328 24.5466 15.6637 24.6694 15.6328 24.7307L15.5401 25.3773C15.5092 25.4693 15.4474 25.4693 15.2929 25.4693H13.1256V27.2227C13.1256 29.559 13.1256 31.343 13.1565 31.5885C13.1874 31.926 13.2492 32.1123 13.684 32.1123H14.7985C14.9839 32.1123 15.0148 32.143 15.0148 32.2657V32.5725C15.0148 32.7259 14.9839 32.818 14.8912 32.818C14.7676 32.818 14.0239 32.7566 12.5076 32.7566C11.4239 32.7566 10.402 32.818 10.2475 32.818C10.1239 32.818 10.093 32.7873 10.093 32.6953V32.2657C10.093 32.1736 10.1239 32.143 10.2784 32.143H11.2385C11.6093 32.143 11.702 31.8975 11.702 31.4657V27.775L11.6424 25.4671Z" fill="black"/>
<path d="M23.8146 27.2512C23.6292 27.7443 22.5146 30.7272 22.4219 31.1567C22.391 31.2795 22.3601 31.4943 22.3601 31.5863C22.3601 31.8625 22.6073 32.0159 23.0421 32.0159H23.9713C24.0949 32.0159 24.1567 32.0466 24.1567 32.1386V32.5989C24.1567 32.7216 24.0949 32.783 24.0022 32.783C23.7241 32.783 22.9185 32.7216 21.7421 32.7216C20.2877 32.7216 19.8529 32.783 19.5748 32.783C19.4821 32.783 19.4512 32.7523 19.4512 32.6295V32.1693C19.4512 32.0772 19.5439 32.0466 19.6057 32.0466H20.2877C20.877 32.0466 21.155 31.7704 21.4331 31.1545C21.5567 30.8477 23.0134 27.1876 23.6005 25.5877C23.7241 25.1888 25.3353 20.9742 25.5207 20.4219C25.5825 20.2378 25.6752 19.9617 25.5516 19.7447C25.4898 19.6527 25.3971 19.5606 25.3971 19.4992C25.3971 19.4379 25.428 19.3765 25.5825 19.3151C26.1409 19.1924 27.0061 18.6072 27.2246 18.3311C27.3173 18.239 27.3791 18.147 27.4718 18.147C27.5954 18.147 27.6263 18.2697 27.6881 18.4845C28.0588 19.714 29.6082 24.1434 29.979 25.4036C30.4425 26.9422 31.7138 30.6001 31.9919 31.1852C32.3318 31.8318 32.8593 32.0772 33.3537 32.0772H34.0048C34.1284 32.0772 34.1593 32.1386 34.1593 32.2V32.6931C34.1593 32.7852 34.0975 32.8158 33.9739 32.8158C33.634 32.8158 33.1992 32.7545 31.5902 32.7545C29.9481 32.7545 29.2374 32.8158 28.8026 32.8158C28.7099 32.8158 28.6481 32.7545 28.6481 32.6317V32.1715C28.6481 32.0488 28.7099 32.0488 28.8335 32.0488H29.3301C29.8885 32.0488 30.0739 31.8646 29.9194 31.3102C29.7649 30.6022 28.9593 28.0818 28.6812 27.2819L23.8146 27.2512ZM28.4605 26.5433C28.2751 25.9581 26.664 21.0378 26.5713 20.731C26.5095 20.5775 26.4786 20.4548 26.4168 20.4548C26.3241 20.4548 26.2623 20.5775 26.2005 20.7616C26.1078 21.0071 24.2185 26.0501 24.064 26.5433H28.4605Z" fill="black"/>
<path d="M36.1391 27.4968C36.1391 26.4821 35.9846 26.298 35.4262 25.9889L35.0554 25.8048C34.9318 25.7742 34.9009 25.7435 34.9009 25.6821V25.5594C34.9009 25.4673 34.9318 25.4366 35.0554 25.3753L37.0064 24.3605C37.13 24.2992 37.1918 24.2685 37.2845 24.2685C37.4081 24.2685 37.4081 24.3912 37.4081 24.5139L37.5008 25.8662H37.5935C38.1828 24.9742 39.112 24.1436 39.9772 24.1436C40.6592 24.1436 40.9991 24.5424 40.9991 25.0049C40.9991 25.5901 40.5356 25.9583 40.1626 25.9583C39.9463 25.9583 39.7609 25.8662 39.5733 25.8048C39.4188 25.7128 39.1716 25.6514 38.9222 25.6514C38.6132 25.6514 38.0857 25.8355 37.7458 26.4821C37.6222 26.6968 37.5604 27.0672 37.5604 27.0979V31.2183C37.5604 31.8341 37.7149 32.0182 38.1188 32.0182H39.048C39.1716 32.0182 39.1716 32.0796 39.1716 32.2023V32.5398C39.1716 32.6626 39.1407 32.7239 39.0789 32.7239C38.9553 32.7239 38.057 32.6626 36.9733 32.6626C35.7352 32.6626 34.8987 32.7239 34.806 32.7239C34.7133 32.7239 34.6824 32.6933 34.6824 32.5398V32.2023C34.6824 32.0796 34.7133 32.0182 34.8987 32.0182H35.6734C35.9824 32.0182 36.1059 31.8955 36.1059 31.65C36.1368 31.0035 36.1368 30.2978 36.1368 29.283L36.1391 27.4968Z" fill="black"/>
<path d="M42.1488 27.9593C42.1488 29.0354 42.6123 30.2342 43.1707 30.9421C43.8218 31.8034 44.6583 31.9569 45.3381 31.9569C46.3291 31.9569 46.8566 31.7421 47.5054 31.0955C47.5363 31.0648 47.5981 31.0342 47.6599 31.0955L47.8453 31.2796C47.938 31.3717 47.938 31.4024 47.8453 31.5251C47.256 32.1716 45.987 32.908 44.6561 32.908C43.6033 32.908 42.4887 32.6626 41.5904 31.5251C40.8466 30.5717 40.6921 29.7411 40.6921 28.8491C40.6921 26.5434 42.3033 24.2356 44.9342 24.2356C47.0088 24.2356 47.629 25.4038 47.629 25.8355C47.5981 26.2958 47.32 26.5127 46.8853 26.5127C46.4218 26.5127 46.0797 26.2673 45.8016 25.7128C45.369 24.9128 44.9342 24.8515 44.4707 24.8515C43.387 24.915 42.1488 25.9298 42.1488 27.9593Z" fill="black"/>
<path d="M49.5493 21.9935C49.5493 20.7947 49.3021 20.5799 48.5892 20.3322L48.2493 20.2095C48.1257 20.1788 48.1257 20.1481 48.1257 20.0867V19.9026C48.1257 19.8106 48.1875 19.8106 48.3729 19.7185L50.4476 18.6424C50.6021 18.5504 50.7566 18.489 50.9111 18.489C51.0347 18.489 51.0965 18.6424 51.0656 18.9821C51.0347 19.3197 51.0038 23.3173 51.0038 24.3013V25.5615H51.0965C51.7785 24.7309 52.9549 24.2706 53.8222 24.2706C54.6587 24.2706 55.2149 24.5161 55.7733 25.0706C56.6716 25.9013 56.6407 26.916 56.6407 27.9614V29.0682C56.6407 30.175 56.6716 31.4045 56.6716 31.7749C56.6716 32.0204 56.9806 32.0818 57.4154 32.0818H57.7553C57.9098 32.0818 57.9716 32.1124 57.9716 32.2659V32.5727C57.9716 32.7261 57.9407 32.8182 57.8171 32.8182C57.6935 32.8182 57.0424 32.7568 55.9278 32.7568C54.9677 32.7568 54.2548 32.8182 54.0694 32.8182C53.9458 32.8182 53.884 32.7568 53.884 32.6034V32.2659C53.884 32.1738 53.9149 32.1124 54.0076 32.1124H54.4711C54.811 32.1124 55.2149 32.0818 55.2149 31.7442C55.2458 31.4681 55.2149 30.4227 55.2149 29.8068V28.1762C55.2149 27.0694 55.1222 26.3001 54.5638 25.7478C54.1621 25.3796 53.7582 25.1933 53.2638 25.1933C52.6746 25.1933 51.9639 25.3774 51.4055 26.024C51.2201 26.2388 51.0038 26.6398 51.0038 26.9774V31.2818C51.0038 31.9283 51.0656 32.0818 51.4364 32.0818H52.0257C52.1493 32.0818 52.242 32.1124 52.242 32.2352V32.5727C52.242 32.6954 52.2111 32.7875 52.0875 32.7875C51.933 32.7875 51.1274 32.7261 50.1982 32.7261C49.2072 32.7261 48.4634 32.7875 48.278 32.7875C48.1853 32.7875 48.1544 32.7261 48.1544 32.6034V32.2352C48.1544 32.1124 48.2471 32.0818 48.4634 32.0818H48.8651C49.1741 32.0818 49.4853 31.9897 49.5162 31.7749C49.578 31.4067 49.578 29.2216 49.578 27.9614L49.5493 21.9935Z" fill="black"/>
<path d="M60.0176 27.0057C60.0176 26.3285 59.894 25.991 58.9031 25.8376C58.7795 25.8069 58.7177 25.7762 58.7177 25.7148V25.5307C58.7177 25.4693 58.7486 25.4387 58.8413 25.408C59.4615 25.1625 60.2339 24.8535 60.9777 24.4546C61.1322 24.3625 61.2249 24.3319 61.3485 24.3319C61.4412 24.3319 61.4721 24.4239 61.4412 24.5773C61.4103 24.9149 61.4103 26.1466 61.4103 27.775V29.9272C61.4103 30.6965 61.4103 31.4044 61.4412 31.6192C61.4721 31.9874 61.5339 32.143 61.7502 32.143H62.6485C62.803 32.143 62.8339 32.2044 62.8339 32.3271V32.6646C62.8339 32.7873 62.803 32.8487 62.6485 32.8487C62.494 32.8487 61.5648 32.7873 60.7592 32.7873C59.6137 32.7873 58.8391 32.8487 58.6228 32.8487C58.5301 32.8487 58.4683 32.818 58.4683 32.6953V32.2964C58.4683 32.1737 58.5301 32.143 58.6537 32.143H59.6137C59.83 32.143 59.9227 32.0509 59.9227 31.7441C59.9536 31.1589 59.9536 30.5453 59.9536 29.9601L60.0176 27.0057ZM59.1194 20.9786C59.1194 20.4855 59.521 19.9639 60.3266 19.9639C61.0086 19.9639 61.3485 20.4877 61.3485 20.9172C61.3485 21.4411 60.9777 21.9934 60.203 21.9934C59.7705 22.024 59.1194 21.623 59.1194 20.9786Z" fill="black"/>
<path d="M65.6236 30.2648C65.6236 31.7419 66.3056 31.9874 66.6455 31.9874C67.1089 31.9874 67.6673 31.8954 67.9454 31.7419C68.0381 31.6806 68.1308 31.7113 68.1926 31.7726L68.2853 31.9567C68.3471 32.0488 68.3162 32.1101 68.2544 32.1715C68.069 32.3556 67.2325 32.9715 66.0562 32.9715C65.0961 32.9715 64.136 32.0488 64.136 31.3102C64.136 30.5102 64.1978 28.7569 64.1978 28.4807V28.0512C64.1978 27.683 64.2287 26.3899 64.2287 25.5592H63.0214C62.836 25.5592 62.7124 25.4672 62.7124 25.3138C62.7124 25.1604 62.836 25.099 63.0523 24.9456C63.5158 24.6694 65.0652 23.1309 65.3124 22.4536C65.3742 22.3002 65.4669 22.2695 65.5905 22.2695C65.745 22.2695 65.7759 22.3923 65.7759 22.5764L65.6832 24.5138H68.4398C68.5634 24.5138 68.6252 24.6059 68.5634 24.6979L68.378 25.3751C68.3471 25.4672 68.3162 25.5286 68.1926 25.5286H65.6214C65.5905 26.4206 65.5596 27.3739 65.5596 28.2966L65.6236 30.2648Z" fill="black"/>
<path d="M70.1745 27.4968C70.1436 27.6809 70.1127 27.9899 70.1127 28.4502C70.1127 30.3876 71.3509 31.8319 72.9312 31.8319C74.1385 31.8319 75.0059 31.1547 75.3149 30.4797C75.3458 30.3876 75.4384 30.3569 75.5002 30.3876L75.7474 30.541C75.8092 30.5717 75.8401 30.6331 75.7474 30.8479C75.3766 31.6478 74.3548 33.0001 72.5891 33.0001C71.4436 33.0001 70.2054 32.6626 69.4616 31.6171C68.7796 30.6024 68.5942 29.8945 68.5942 28.5115C68.5942 27.7423 68.7796 26.4207 69.8324 25.3753C70.6998 24.5139 71.6908 24.3298 72.6818 24.3298C74.9728 24.3298 75.5929 26.4514 75.5929 27.2206C75.5929 27.4968 75.3458 27.5275 75.0346 27.5275L70.1745 27.4968ZM73.3329 26.9138C73.7037 26.9138 73.8604 26.8218 73.8604 26.6377C73.8604 26.1774 73.6132 24.8843 72.3419 24.8843C71.4745 24.8843 70.638 25.4695 70.2672 26.9138H73.3329Z" fill="black"/>
<path d="M77.8244 27.9593C77.8244 29.0354 78.2879 30.2342 78.8462 30.9421C79.4973 31.8034 80.3338 31.9569 81.0136 31.9569C82.0046 31.9569 82.5321 31.7421 83.181 31.0955C83.2119 31.0648 83.2737 31.0342 83.3355 31.0955L83.5209 31.2796C83.6136 31.3717 83.6136 31.4024 83.5209 31.5251C82.9316 32.1716 81.6625 32.908 80.3316 32.908C79.2788 32.908 78.1643 32.6626 77.266 31.5251C76.5222 30.5717 76.3677 29.7411 76.3677 28.8491C76.3677 26.5434 78.0098 24.2356 80.6097 24.2356C82.6844 24.2356 83.3046 25.4038 83.3046 25.8355C83.2737 26.2958 82.9956 26.5127 82.5608 26.5127C82.0973 26.5127 81.7552 26.2673 81.4771 25.7128C81.0445 24.9128 80.6097 24.8515 80.1462 24.8515C79.0316 24.915 77.8244 25.9298 77.8244 27.9593Z" fill="black"/>
<path d="M86.5269 30.2648C86.5269 31.7419 87.2089 31.9874 87.5488 31.9874C88.0123 31.9874 88.5707 31.8954 88.8487 31.7419C88.9414 31.6806 89.0341 31.7113 89.0959 31.7726L89.1886 31.9567C89.2504 32.0488 89.2195 32.1101 89.1577 32.1715C88.9723 32.3556 88.1359 32.9715 86.9595 32.9715C85.9994 32.9715 85.0393 32.0488 85.0393 31.3102C85.0393 30.5102 85.1011 28.7569 85.1011 28.4807V28.0512C85.1011 27.683 85.132 26.3899 85.132 25.5592H83.9247C83.7393 25.5592 83.6157 25.4672 83.6157 25.3138C83.6157 25.1604 83.7393 25.099 83.9556 24.9456C84.4191 24.6694 85.9685 23.1309 86.2157 22.4536C86.2775 22.3002 86.3702 22.2695 86.4938 22.2695C86.6483 22.2695 86.6792 22.3923 86.6792 22.5764L86.5865 24.5138H89.3431C89.4667 24.5138 89.5285 24.6059 89.4976 24.6979L89.3122 25.3751C89.2813 25.4672 89.2504 25.5286 89.1268 25.5286H86.5556C86.5247 26.4206 86.4938 27.3739 86.4938 28.2966L86.5269 30.2648Z" fill="black"/>
<path d="M97.7677 28.7284C97.7677 29.6818 97.7677 30.6352 97.7986 31.0648C97.8604 31.6806 98.0767 31.742 98.3261 31.742C98.4497 31.742 98.7278 31.742 98.9772 31.6806C99.1317 31.6499 99.1935 31.6806 99.2244 31.7727L99.2862 32.0181C99.3171 32.1409 99.2553 32.1715 99.1935 32.2022L97.1188 32.8795C96.9952 32.9101 96.8716 32.9715 96.7171 32.9715C96.6244 32.9715 96.5626 32.9408 96.5317 32.726L96.3772 31.5886H96.3464C95.788 32.3578 94.6425 32.9715 93.6515 32.9715C93.0931 32.9715 92.4442 32.9101 91.7931 32.0795C90.9875 31.0341 91.0184 30.3875 91.0184 28.2046V25.9297C90.9875 25.3752 90.7094 25.2524 90.2746 25.1911C89.9347 25.1604 89.842 25.1604 89.842 25.0683V24.7001C89.842 24.5774 89.8729 24.5467 90.0583 24.5467H91.824C91.9476 24.5467 92.0094 24.516 92.1021 24.516C92.1948 24.516 92.2566 24.4854 92.3184 24.4854C92.442 24.4854 92.5656 24.5774 92.5347 24.7308C92.5038 24.9149 92.442 25.8376 92.442 27.0058V28.3887C92.442 29.1887 92.2566 30.4489 92.8746 31.3409C93.3712 32.0488 93.9274 32.0795 94.4549 32.0795C94.9824 32.0795 95.7857 31.5557 96.1587 31.0954C96.2514 31.0034 96.3441 30.7272 96.3441 30.5716V25.8968C96.3132 25.3423 95.9734 25.2502 95.4768 25.2196C95.1369 25.2196 95.0442 25.1889 95.0442 25.0968V24.7593C95.0442 24.6059 95.0751 24.5752 95.2914 24.5752H97.1497C97.2733 24.5752 97.3969 24.5445 97.4896 24.5445C97.5823 24.5445 97.675 24.5138 97.7368 24.5138C97.8604 24.5138 97.9222 24.6059 97.9222 24.6979C97.8913 24.882 97.7986 25.3752 97.7986 27.3126L97.7677 28.7284Z" fill="black"/>
<path d="M101.175 27.4968C101.175 26.4821 101.021 26.298 100.463 25.9889L100.092 25.8048C99.9682 25.7742 99.9373 25.7435 99.9373 25.6821V25.5594C99.9373 25.4673 99.9682 25.4366 100.092 25.3753L102.043 24.3605C102.166 24.2992 102.228 24.2685 102.321 24.2685C102.445 24.2685 102.445 24.3912 102.445 24.5139L102.537 25.8662H102.63C103.219 24.9742 104.148 24.1436 105.014 24.1436C105.696 24.1436 106.035 24.5424 106.035 25.0049C106.035 25.5901 105.572 25.9583 105.199 25.9583C104.983 25.9583 104.797 25.8662 104.61 25.8048C104.455 25.7128 104.208 25.6514 103.959 25.6514C103.65 25.6514 103.122 25.8355 102.782 26.4821C102.659 26.6968 102.597 27.0672 102.597 27.0979V31.2183C102.597 31.8341 102.72 32.0182 103.155 32.0182H104.084C104.208 32.0182 104.208 32.0796 104.208 32.2023V32.5398C104.208 32.6626 104.177 32.7239 104.115 32.7239C103.992 32.7239 103.093 32.6626 102.01 32.6626C100.772 32.6626 99.935 32.7239 99.8423 32.7239C99.7496 32.7239 99.7188 32.6933 99.7188 32.5398V32.2023C99.7188 32.0796 99.7496 32.0182 99.935 32.0182H100.71C101.019 32.0182 101.142 31.8955 101.142 31.65C101.173 31.0035 101.173 30.2978 101.173 29.283L101.175 27.4968Z" fill="black"/>
<path d="M107.369 27.4968C107.338 27.6809 107.307 27.9899 107.307 28.4502C107.307 30.3876 108.545 31.8319 110.125 31.8319C111.333 31.8319 112.2 31.1547 112.509 30.4797C112.54 30.3876 112.633 30.3569 112.694 30.3876L112.942 30.541C113.003 30.5717 113.034 30.6331 112.942 30.8479C112.602 31.6478 111.549 33.0001 109.783 33.0001C108.669 33.0001 107.4 32.6626 106.656 31.6171C105.974 30.6024 105.788 29.8945 105.788 28.5115C105.788 27.7423 105.974 26.4207 107.027 25.3753C107.894 24.5139 108.885 24.3298 109.876 24.3298C112.167 24.3298 112.787 26.4514 112.787 27.2206C112.787 27.4968 112.54 27.5275 112.229 27.5275L107.369 27.4968ZM110.527 26.9138C110.898 26.9138 111.054 26.8218 111.054 26.6377C111.054 26.1774 110.807 24.8843 109.536 24.8843C108.669 24.8843 107.832 25.4695 107.461 26.9138H110.527Z" fill="black"/>
</svg>
