<svg width="113" height="113" viewBox="0 0 113 113" fill="none" xmlns="http://www.w3.org/2000/svg">
<g clip-path="url(#clip0_17_1319)">
<path d="M50.3988 11.2231C47.2971 17.4112 44.3622 23.215 43.9286 24.099C43.495 24.983 42.0609 27.8656 40.7602 30.4408C39.4595 33.0544 36.9914 37.9357 35.3238 41.318C33.6229 44.7003 31.9553 47.9673 31.5884 48.6207C31.2549 49.2357 30.8547 50.0429 30.7213 50.3503C30.5879 50.6578 27.7864 56.2694 24.5179 62.8418C21.2161 69.3758 17.1138 77.601 15.3462 81.0986C13.6119 84.5963 11.444 88.8626 10.5769 90.6306C9.67636 92.3602 8.409 94.9738 7.74196 96.3959C7.07493 97.818 6.30784 99.2401 6.07438 99.586C5.80756 99.8935 5.60745 100.316 5.60745 100.47C5.60745 100.585 5.00712 101.815 4.27338 103.161C3.53965 104.506 2.93931 105.697 2.93931 105.813C2.93931 105.966 2.27228 107.35 1.43849 108.887C-0.729375 113.038 -0.729375 113 3.40624 113H6.87482L10.8103 105.236C12.9448 100.931 16.9137 93.052 19.5818 87.7095C22.25 82.4054 24.6846 77.5626 24.9848 76.9476C25.5184 75.9483 29.7875 67.3772 31.5551 63.8027C32.022 62.8418 33.0559 60.7663 33.8897 59.1905C34.7235 57.6146 35.6574 55.6928 36.0242 54.9626C36.3911 54.2323 37.7585 51.5034 39.0592 48.8898C40.3933 46.2762 41.8274 43.432 42.261 42.548C43.7285 39.5884 54.0342 19.0639 55.3015 16.6425L56.5022 14.2595L62.172 25.598C65.2737 31.8245 68.1419 37.5898 68.5422 38.3585C68.9424 39.1272 70.043 41.318 70.9768 43.2398C71.9107 45.1231 72.9446 47.1986 73.2781 47.852C73.6116 48.467 76.113 53.502 78.8812 58.9983C81.616 64.4945 86.452 74.1418 89.6205 80.4452C92.7889 86.7486 95.3236 92.0143 95.2235 92.0911C95.1568 92.168 83.6171 92.2065 69.5427 92.168L43.9953 92.0527L49.9986 80.1377C53.3004 73.5653 56.1353 67.9922 56.2687 67.7231C56.4355 67.4156 57.0358 68.2997 58.003 70.2983L59.4705 73.4116H63.2392C65.5739 73.4116 66.9746 73.2578 66.9079 73.0272C66.5411 71.7973 56.7357 52.6949 56.4688 52.6949C56.3021 52.6949 55.535 53.9248 54.7679 55.4622C54.0342 56.9612 49.4983 65.9935 44.729 75.5255C39.9597 85.019 35.7908 93.3211 35.4906 93.9745C35.1904 94.5894 34.4233 96.0884 33.823 97.2415C33.1893 98.3945 32.7558 99.4707 32.8558 99.6245C33.0559 100.009 106.663 100.009 106.663 99.6245C106.663 99.4707 105.996 98.0102 105.162 96.3959C104.329 94.7432 103.662 93.3595 103.662 93.2442C103.662 93.1289 103.095 91.9758 102.394 90.6306C101.66 89.2854 99.8928 85.7877 98.4253 82.8282C96.9245 79.8687 91.9217 69.8371 87.2525 60.5357C82.5832 51.2343 78.3476 42.7401 77.8473 41.7024C77.3137 40.6262 76.113 38.2048 75.1458 36.3214C71.944 30.018 68.5422 23.215 62.6723 11.5306C59.5038 5.18878 56.7023 3.61018e-06 56.4688 3.61018e-06C56.2354 3.61018e-06 53.5005 5.07347 50.3988 11.2231Z" fill="black"/>
<path d="M49.9652 38.5123C46.5634 45.2769 42.2943 53.8095 40.4934 57.4225C38.659 61.0354 35.7574 66.8391 34.0231 70.3367C32.2888 73.8344 30.6212 77.1398 30.3211 77.7163C30.0209 78.2929 28.8536 80.599 27.7196 82.9051C26.5523 85.1728 25.2183 87.8248 24.7513 88.7857C24.2844 89.7466 21.8497 94.5895 19.3817 99.5476C16.8803 104.506 14.4123 109.387 13.912 110.425C13.3784 111.424 12.9448 112.423 12.9448 112.616C12.9448 112.885 30.3544 113 62.9724 113C107.564 113 113 112.923 113 112.423C113 112.078 112.3 110.463 111.466 108.772L109.898 105.697H66.9079H23.9175L24.9848 103.468C26.0854 101.239 29.8541 93.7054 31.7885 89.9388C32.3555 88.7857 35.0904 83.3663 37.8252 77.9085C40.5601 72.4507 43.0614 67.4541 43.395 66.8007C43.7285 66.1473 45.0959 63.4184 46.43 60.7663C51.7996 50.0813 56.4021 40.9337 56.4355 40.8568C56.4688 40.8184 59.1703 46.1609 64.64 57.0765C66.1742 60.1129 69.476 66.6854 69.8095 67.3388C71.0435 69.7218 75.5127 78.6388 75.5794 78.8694C75.6461 79.0616 71.3103 79.1769 65.9074 79.1769L56.1353 79.2153L54.4677 82.5592C53.5672 84.4041 52.7668 86.1337 52.7001 86.4027C52.6 86.7486 56.1687 86.8639 69.6094 86.8639C82.0163 86.8639 86.6521 86.7486 86.6521 86.4412C86.6521 86.0568 84.9512 82.367 83.4837 79.4844C83.317 79.1384 81.4826 75.4871 79.4482 71.4129C77.4137 67.3388 74.1119 60.7279 72.1108 56.7691C70.1097 52.8102 68.1086 48.8129 67.6417 47.8905C67.1747 46.968 64.5733 41.7024 61.8051 36.2061C59.0703 30.6714 56.6689 26.1745 56.4688 26.1745C56.3021 26.1745 53.3671 31.7092 49.9652 38.5123Z" fill="black"/>
</g>
<defs>
<clipPath id="clip0_17_1319">
<rect width="113" height="113" fill="white"/>
</clipPath>
</defs>
</svg>
