<svg width="146" height="139" viewBox="0 0 146 139" fill="none" xmlns="http://www.w3.org/2000/svg">
<path d="M91.2663 73.3642C91.2663 72.0526 90.2284 70.0087 88.9358 70.0087L83.893 69.996L83.9057 62.8264C83.9057 61.8968 82.7596 61.1391 81.3397 61.1391C79.9198 61.1391 78.7737 61.8904 78.7673 62.8201L78.7546 69.9896L73.6672 69.9769L73.6799 62.8073C73.6799 61.8777 72.5847 61.12 71.2221 61.12C69.8659 61.12 68.7644 61.8713 68.758 62.801L68.7453 69.9705L64.4474 69.9641C63.1548 69.9641 62.1106 72.0016 62.1106 73.3133C62.1106 73.7717 60.0603 90.1356 76.4114 90.1738C92.7753 90.1929 91.2663 73.9182 91.2663 73.3642Z" fill="#706F6F"/>
<path d="M133.347 90.072C132.482 90.072 120.683 99.7121 120.683 108.06C120.683 116.407 127.012 120.291 132.768 120.291C138.524 120.291 144.134 116.98 145 108.633C145.865 100.285 133.347 90.072 133.347 90.072ZM135.449 116.331C140.186 114.605 141.695 107.767 141.695 107.767C142.561 115.573 135.449 116.331 135.449 116.331Z" fill="#36A9E1"/>
<path d="M39.5768 2L41.4615 12.8689" stroke="#F9B419" stroke-width="3.6631" stroke-miterlimit="10" stroke-linecap="round" stroke-linejoin="round"/>
<path d="M50.5922 14.257L55.9343 7.07471" stroke="#F9B419" stroke-width="3.6631" stroke-miterlimit="10" stroke-linecap="round" stroke-linejoin="round"/>
<path d="M56.5074 21.7958L66.1028 20.1339" stroke="#F9B419" stroke-width="3.6631" stroke-miterlimit="10" stroke-linecap="round" stroke-linejoin="round"/>
<path d="M54.2725 31.7351L61.3974 36.7589" stroke="#F9B419" stroke-width="3.6631" stroke-miterlimit="10" stroke-linecap="round" stroke-linejoin="round"/>
<path d="M45.9823 37.1218L47.5869 46.3926" stroke="#F9B419" stroke-width="3.6631" stroke-miterlimit="10" stroke-linecap="round" stroke-linejoin="round"/>
<path d="M36.2531 34.1929L31.656 41.9036" stroke="#F9B419" stroke-width="3.6631" stroke-miterlimit="10" stroke-linecap="round" stroke-linejoin="round"/>
<path d="M30.981 26.5394L21.4365 28.5196" stroke="#F9B419" stroke-width="3.6631" stroke-miterlimit="10" stroke-linecap="round" stroke-linejoin="round"/>
<path d="M33.2669 16.9248L26.1929 12.2194" stroke="#F9B419" stroke-width="3.6631" stroke-miterlimit="10" stroke-linecap="round" stroke-linejoin="round"/>
<path d="M41.9327 15.091C36.7625 15.9824 33.2923 20.9043 34.1901 26.0745C35.0815 31.2447 40.0034 34.7149 45.1737 33.8171C50.3439 32.9257 53.814 28.0038 52.9162 22.8336C52.0248 17.6634 47.1093 14.1996 41.9327 15.091ZM37.0554 25.9472C35.4509 19.6563 41.3915 17.9945 41.3915 17.9945C37.1382 20.2166 37.0554 25.9472 37.0554 25.9472Z" fill="#F9B419"/>
<path d="M76.8508 87.9326C76.8508 87.9326 77.7549 114.465 77.4939 118.877C77.2328 123.284 76.9336 136.515 64.3009 134.146C64.3009 134.146 47.3194 131.975 29.5802 116.432" stroke="#706F6F" stroke-width="5.85" stroke-miterlimit="10" stroke-linecap="round"/>
<path d="M18.0873 96.6874L18.151 116.528" stroke="#C6C6C6" stroke-width="3.2676" stroke-miterlimit="10" stroke-linecap="round" stroke-linejoin="round"/>
<path d="M18.0555 96.1526C18.1828 96.4264 26.6577 85.6212 17.6353 71.6832C17.6353 71.6832 13.9932 80.0816 16.0116 93.0709C16.0052 93.0709 17.6671 95.3312 18.0555 96.1526Z" fill="#C6C6C6"/>
<path d="M18.9023 96.2735C18.5967 96.2926 24.7602 108.155 42.0282 105.315C42.0282 105.315 35.3299 98.5275 22.5317 95.5286C22.5253 95.5286 19.8001 96.2226 18.9023 96.2735Z" fill="#C6C6C6"/>
<path d="M17.3105 96.4073C17.6162 96.4264 9.90541 106.684 -6 106.073C-6 106.073 -0.543259 96.0762 13.6812 95.6624C13.6812 95.6624 16.4064 96.3564 17.3105 96.4073Z" fill="#C6C6C6"/>
<path d="M18.0746 99.7374C19.6817 99.7374 20.9844 98.4346 20.9844 96.8276C20.9844 95.2205 19.6817 93.9177 18.0746 93.9177C16.4676 93.9177 15.1648 95.2205 15.1648 96.8276C15.1648 98.4346 16.4676 99.7374 18.0746 99.7374Z" fill="#9D9D9C"/>
<path d="M13.5411 98.5977C13.5411 98.5977 7.07835 104.054 -1.20545 105.162C-1.20545 105.162 6.06596 102.736 13.5411 98.5977Z" fill="white"/>
<path d="M122.969 33.4988C133.303 41.0567 141.803 24.661 141.803 24.661C122.924 21.0699 122.969 33.4988 122.969 33.4988ZM123.727 32.792C123.727 32.792 128.68 26.5967 139.67 25.5588C139.67 25.5588 131.641 26.9596 123.727 32.792Z" fill="#95C11F"/>
<path d="M123.465 33.588L123.204 47.7361" stroke="#95C11F" stroke-width="3.519" stroke-miterlimit="10" stroke-linecap="round" stroke-linejoin="round"/>
<path d="M104.351 25.3487C104.351 25.3487 112.851 41.7381 123.185 34.1865C123.179 34.1865 123.23 21.7576 104.351 25.3487ZM106.484 26.2465C117.474 27.2844 122.428 33.4797 122.428 33.4797C114.513 27.6473 106.484 26.2465 106.484 26.2465Z" fill="#95C11F"/>
<path d="M13.7831 65.3733C14.8337 56.6311 17.6735 48.4428 21.9204 41.1777" stroke="#706F6F" stroke-width="5.85" stroke-miterlimit="10" stroke-linecap="round"/>
<path d="M115.347 122.532C106.783 129.282 96.4237 133.853 85.1027 135.42" stroke="#706F6F" stroke-width="5.85" stroke-miterlimit="10" stroke-linecap="round"/>
<path d="M133.354 45.9596C137.244 54.1479 139.422 63.3104 139.422 72.9759C139.422 75.7265 139.244 78.4326 138.906 81.0878" stroke="#706F6F" stroke-width="5.85" stroke-miterlimit="10" stroke-linecap="round"/>
<path d="M66.1028 10.9142C70.2861 10.0418 73.5207 9.93359 77.9651 9.93359C88.4647 9.93359 98.3657 12.4996 107.07 17.0395" stroke="#706F6F" stroke-width="5.85" stroke-miterlimit="10" stroke-linecap="round"/>
</svg>
