<svg width="114" height="119" viewBox="0 0 114 119" fill="none" xmlns="http://www.w3.org/2000/svg">
<path d="M22.5933 9.28714C23.9365 8.94386 25.3142 8.77222 26.6918 8.73789C27.9661 8.73789 29.206 8.94386 30.377 9.39013C31.6513 9.87072 32.8223 10.6259 33.8211 11.5871L39.1939 3.96627C36.8175 1.94091 34.3377 0.705093 31.6858 0.224498C29.0338 -0.256097 26.1408 0.052857 22.8 0.979718C21.5257 1.35733 20.2513 1.83792 19.0459 2.4215V10.7976C20.148 10.111 21.3535 9.5961 22.5933 9.28714Z" fill="black"/>
<path d="M36.5764 31.2914C35.4054 30.1929 34.0278 29.369 32.5124 28.8541C30.6181 28.2705 28.655 27.9959 26.6574 27.9959L21.009 27.8243C20.3547 27.8243 19.7003 27.7213 19.0459 27.584V36.5093H19.3559L25.1075 36.7839C26.2785 36.8183 27.4495 37.0242 28.5516 37.3675C29.3782 37.6765 30.1359 38.1914 30.7214 38.8436C32.0991 40.2168 32.8223 42.4138 32.8223 45.3317C32.8223 48.2496 31.858 50.9958 29.9293 52.8495C28.0006 54.7033 25.4519 55.5958 22.2489 55.7331C21.1812 55.7674 20.1136 55.7331 19.0459 55.5958V64.0405C20.0791 64.1435 21.1124 64.2122 22.1456 64.2122C24.6254 64.2122 27.0707 63.8002 29.4127 62.942C31.6858 62.1181 33.7522 60.8137 35.4743 59.1316C37.2997 57.3122 38.7462 55.1495 39.6761 52.7466C40.6749 50.1033 41.1915 47.2884 41.1571 44.4735C41.1571 38.466 39.6072 34.072 36.5764 31.2914Z" fill="black"/>
<path d="M46.1511 42.7228L59.1354 43.9243L46.53 0.0185547L54.107 2.07825L72.4986 63.869H64.7838L61.3396 51.8198L46.1856 50.9616L46.1511 42.7228Z" fill="black"/>
<path d="M7.30143 87.9672C7.30143 88.5164 7.23255 89.0657 7.06034 89.6149C6.92258 90.0612 6.68149 90.4731 6.37152 90.8164C6.09599 91.1597 5.71714 91.4 5.30384 91.503C4.85611 91.6403 4.37393 91.6746 3.89176 91.606C3.44403 91.5716 2.99629 91.4343 2.61744 91.2284C2.20415 91.0567 1.85973 90.7821 1.54977 90.4731C1.20535 90.1299 0.895384 89.7179 0.654297 89.2717L1.13647 88.5851C1.412 88.997 1.68753 89.3746 1.9975 89.7179C2.23859 89.9925 2.54856 90.1985 2.89297 90.3358C3.23738 90.4732 3.58179 90.5761 3.9262 90.6448C4.40838 90.7134 4.89055 90.6448 5.30384 90.4388C5.71714 90.2328 6.02711 89.9239 6.19931 89.512C6.68149 88.3105 6.61261 86.9373 5.95822 85.8045C5.82046 85.5985 5.61381 85.4269 5.40717 85.2896C5.13164 85.118 4.82167 84.9806 4.5117 84.8777L3.3407 84.5C2.65188 84.2941 2.03194 83.8821 1.61865 83.2986C1.06759 82.509 0.792061 81.5478 0.826502 80.5866C0.826502 80.0374 0.895384 79.4881 1.06759 78.9732C1.17091 78.5269 1.37756 78.115 1.65309 77.7717C1.89418 77.4628 2.23859 77.2225 2.61744 77.0852C3.03073 76.9135 3.44403 76.8449 3.89176 76.8792C4.44282 76.9135 4.95943 77.0508 5.44161 77.3598C5.95822 77.7031 6.40596 78.115 6.78481 78.6299L6.26819 79.3165C5.99267 78.9046 5.61381 78.5269 5.20052 78.218C4.78723 77.9434 4.30505 77.8061 3.82288 77.8061C3.1685 77.7374 2.54856 77.9777 2.13526 78.4926C1.72197 79.1105 1.51532 79.8657 1.54977 80.621C1.51532 81.3075 1.68753 81.9598 2.06638 82.5433C2.27303 82.7836 2.47967 82.9896 2.7552 83.1612C2.99629 83.3329 3.27182 83.4702 3.54735 83.5389L4.61502 83.8821C4.99387 83.9851 5.37273 84.1568 5.71714 84.3627C5.99267 84.5344 6.23375 84.7747 6.4404 85.0493C6.71593 85.4269 6.95702 85.8732 7.09478 86.3538C7.23255 86.8687 7.30143 87.4179 7.30143 87.9672Z" fill="black"/>
<path d="M16.5317 78.8359L13.2254 78.5956V92.7388L12.3988 92.6015V78.5269L9.23022 78.321V77.3254L16.5317 77.7717V78.8359Z" fill="black"/>
<path d="M27.9316 89.4434C27.9316 90.3703 27.7594 91.2971 27.3806 92.1553C27.0706 92.8419 26.554 93.4598 25.8996 93.8717C25.2452 94.215 24.4875 94.3523 23.7298 94.2493C22.9721 94.1464 22.2488 93.8031 21.6289 93.3225C21.009 92.7389 20.5268 92.0523 20.2168 91.2628C19.8724 90.4046 19.7002 89.4434 19.7002 88.5165V77.9778L20.5957 78.0464V88.4822C20.5612 89.2718 20.699 90.0613 20.9745 90.7822C21.2156 91.4001 21.5945 91.9837 22.0766 92.43C22.5244 92.8419 23.1099 93.1165 23.7298 93.1852C24.3153 93.2538 24.9008 93.1508 25.4174 92.8419C25.934 92.4986 26.3473 92.018 26.554 91.4344C26.8639 90.7135 27.0017 89.9583 26.9673 89.1688V78.424L27.9316 78.4927V89.4434Z" fill="black"/>
<path d="M41.5014 87.6583V88.2419C41.5014 89.5464 41.4325 90.8509 41.2603 92.1553C41.157 93.1165 40.7437 94.0091 40.1582 94.7643C39.8827 95.0732 39.5727 95.3135 39.1939 95.4852C38.8495 95.6911 38.4706 95.7941 38.0573 95.8628C37.6096 95.9314 37.1963 95.9314 36.7485 95.8628L32.3401 95.2792V78.7673L36.7485 79.042C37.1963 79.0763 37.644 79.1449 38.0573 79.3166C38.4706 79.4539 38.8495 79.6599 39.1939 79.9002C39.5727 80.1405 39.8827 80.4494 40.1582 80.7927C40.7437 81.5822 41.1226 82.4748 41.2603 83.436C41.4325 84.6718 41.5014 85.9076 41.5014 87.1434V87.6583ZM40.4337 87.5554V86.8345C40.4682 85.8046 40.3993 84.7748 40.2615 83.7793C40.1582 83.024 39.8827 82.3031 39.4005 81.6852C38.7117 80.7584 37.644 80.2091 36.5075 80.1748L33.3044 79.9345V94.2837L36.5075 94.6956C37.7473 94.8673 38.7117 94.524 39.4005 93.7344C39.8827 93.1509 40.1927 92.3956 40.2615 91.6404C40.3993 90.5419 40.4682 89.4091 40.4337 88.3106V87.5554Z" fill="black"/>
<path d="M7.99033 110.521L7.16375 110.349L6.26828 106.607L1.61873 105.646L0.792145 108.907L0 108.736L3.58187 95.1074L4.27069 95.2104L7.99033 110.521ZM6.02719 105.543L3.92628 96.6179L1.85982 104.719L6.02719 105.543Z" fill="black"/>
<path d="M17.8404 112.718L16.8416 112.477L14.1896 104.891L11.2277 104.342V111.242L10.4011 111.07V96.1372L14.5341 96.7551C15.1196 96.8581 15.6706 97.0984 16.1528 97.476C16.6694 97.9223 17.0483 98.4715 17.2893 99.0894C17.5993 99.8103 17.7371 100.6 17.7371 101.389C17.7715 102.316 17.5304 103.277 17.0483 104.067C16.6005 104.685 15.9117 105.063 15.154 105.063L17.8404 112.718ZM16.876 101.252C16.9105 100.394 16.6694 99.5357 16.1872 98.8148C15.7739 98.2312 15.1196 97.8536 14.3963 97.7506L11.2277 97.27V103.312L14.3963 103.93C14.7407 103.998 15.0507 103.998 15.3951 103.93C15.705 103.861 15.9806 103.689 16.1872 103.483C16.4283 103.209 16.6005 102.934 16.7038 102.591C16.8416 102.145 16.876 101.698 16.876 101.252Z" fill="black"/>
<path d="M28.8271 110.521C28.7238 111.379 28.4483 112.168 28.035 112.924C27.6906 113.507 27.174 113.954 26.554 114.228C25.9341 114.468 25.2797 114.503 24.6253 114.365C24.0398 114.228 23.4888 113.954 23.0066 113.576C22.4555 113.164 22.0078 112.649 21.6634 112.065C21.319 111.585 21.0779 111.036 20.9057 110.452C20.7335 109.868 20.6646 109.251 20.6302 108.633C20.5957 107.946 20.5613 106.916 20.5613 105.474C20.5613 104.033 20.5957 103.037 20.6302 102.385C20.6646 101.801 20.7335 101.218 20.9057 100.669C21.0779 100.154 21.319 99.7073 21.6634 99.2954C22.0422 98.8834 22.49 98.5402 23.0066 98.3342C23.5232 98.1282 24.0743 98.0596 24.6253 98.1625C25.3486 98.2655 26.0374 98.5402 26.5885 99.0208C27.174 99.5357 27.6906 100.154 28.035 100.84C28.4483 101.698 28.6894 102.591 28.7927 103.518L27.8628 103.346C27.725 102.316 27.3462 101.321 26.7262 100.497C26.2096 99.8103 25.4864 99.364 24.6598 99.1924C24.2465 99.1237 23.7987 99.1924 23.4199 99.3297C23.0066 99.467 22.6622 99.7073 22.3867 100.051C22.18 100.291 22.0078 100.566 21.9045 100.874C21.7667 101.218 21.6634 101.595 21.629 101.973C21.5601 102.488 21.5256 103.003 21.4912 103.518V105.646C21.4912 106.882 21.4912 107.843 21.5256 108.495C21.5601 109.079 21.629 109.662 21.7667 110.212C21.9045 110.692 22.1111 111.139 22.3867 111.551C22.6622 111.997 23.0066 112.374 23.4199 112.683C23.7643 112.992 24.212 113.164 24.6598 113.267C25.1419 113.404 25.6586 113.37 26.1063 113.164C26.5885 112.958 27.0018 112.58 27.2773 112.134C27.5873 111.585 27.7939 110.967 27.8972 110.349L28.8271 110.521Z" fill="black"/>
<path d="M41.2948 117.936L40.2271 117.695V109.663L33.2356 108.358V116.151L32.2712 115.91V99.4329L33.2356 99.5702V107.225L40.2271 108.496V100.6L41.2948 100.772V117.936Z" fill="black"/>
<path d="M47.2532 96.9613L46.1511 97.0986V79.6255L47.2532 79.5569V96.9613Z" fill="black"/>
<path d="M60.9953 86.9031C60.9953 88.3792 60.9953 89.4777 60.9608 90.1643C60.9264 90.8165 60.8231 91.4344 60.6509 92.0523C60.272 93.3225 59.4454 94.421 58.3433 95.1419C57.8267 95.5195 57.2068 95.7598 56.5524 95.8284C55.9324 95.9314 55.3125 95.8627 54.727 95.6224C54.1071 95.4165 53.5904 95.0389 53.1772 94.5583C52.7639 94.1463 52.4539 93.6314 52.2817 93.0822C52.1095 92.4643 51.9717 91.8463 51.9373 91.1941C51.9028 90.4732 51.9028 89.3404 51.9028 87.7956C51.9028 86.2508 51.9028 85.118 51.9373 84.3971C51.9717 83.7449 52.1095 83.0927 52.2817 82.4404C52.4883 81.8568 52.7983 81.2733 53.1772 80.7927C53.5904 80.2091 54.1071 79.7628 54.727 79.4195C55.2781 79.0763 55.898 78.8703 56.5524 78.836C57.1723 78.8016 57.7923 78.9046 58.3433 79.1792C58.9288 79.4539 59.4454 79.8315 59.8243 80.3464C60.2031 80.7583 60.4787 81.2733 60.6509 81.8225C60.8231 82.4061 60.9264 83.024 60.9608 83.6419C60.9953 84.3285 60.9953 85.427 60.9953 86.9031ZM60.0309 87.0061C60.0309 85.7016 59.9965 84.7061 59.9621 84.0195C59.9276 83.4359 59.8587 82.8524 59.6865 82.3031C59.5488 81.8568 59.3077 81.4449 59.0321 81.0673C58.7222 80.6897 58.3433 80.3807 57.8956 80.2091C57.4823 80.0031 57.0001 79.9345 56.5524 79.9688C56.0702 80.0031 55.588 80.1404 55.1747 80.3807C54.6926 80.6554 54.2793 80.9986 53.9693 81.4449C53.7282 81.7195 53.556 82.0628 53.4182 82.4061C53.246 82.818 53.1427 83.23 53.1083 83.6762C53.0049 84.2598 52.9705 84.8091 52.9705 85.3926C52.9361 86.0449 52.9361 86.8001 52.9361 87.6926C52.9361 88.5852 52.9361 90.0613 53.0049 90.7822C53.0049 91.3657 53.1083 91.9493 53.2805 92.5329C53.4182 92.9792 53.6593 93.3911 53.9693 93.7344C54.2793 94.112 54.6926 94.3866 55.1403 94.5583C55.588 94.7299 56.0358 94.7986 56.5179 94.7299C57.0001 94.6613 57.4823 94.4896 57.8956 94.215C58.3433 93.9404 58.7222 93.5628 59.0321 93.1165C59.3421 92.7046 59.5488 92.224 59.6865 91.7434C59.8243 91.1598 59.9276 90.5762 59.9621 89.9926C59.9965 89.3061 60.0309 88.3105 60.0309 87.0061Z" fill="black"/>
<path d="M47.2532 118.76L46.1511 119V101.527L47.2532 101.355V118.76Z" fill="black"/>
<path d="M60.0997 100.497L56.1735 101.115V116.769L55.1402 116.974V101.286L51.0762 101.939V100.772L60.0653 99.3984L60.0997 100.497Z" fill="black"/>
<path d="M70.8797 113.473L63.5093 115.121V98.8836L70.8797 97.7507V98.8149L64.4736 99.8104V106.195L69.9498 105.166V106.23L64.4736 107.26V113.782L70.8797 112.409V113.473Z" fill="black"/>
<path d="M81.0399 106.951C80.9366 107.809 80.6955 108.633 80.3511 109.422C80.0411 110.109 79.6278 110.727 79.0768 111.242C78.5946 111.688 78.0091 111.997 77.3547 112.168C76.8381 112.271 76.3215 112.237 75.8393 112.1C75.3571 111.928 74.9094 111.619 74.565 111.207C74.2206 110.83 73.9795 110.383 73.8417 109.903C73.6695 109.354 73.5662 108.804 73.5662 108.221C73.5318 107.569 73.4973 106.539 73.4973 105.131C73.4973 103.724 73.5318 102.694 73.5662 102.042C73.6006 101.424 73.6695 100.806 73.8417 100.222C73.9795 99.6387 74.2206 99.1238 74.565 98.6432C74.9094 98.1283 75.3227 97.6477 75.8393 97.27C76.287 96.9611 76.8037 96.7208 77.3547 96.6521C77.9402 96.5492 78.5602 96.6178 79.1112 96.8924C79.6623 97.2014 80.11 97.682 80.3855 98.2312C80.7299 98.9178 80.971 99.673 81.0399 100.463L80.2133 100.6C80.1444 99.7417 79.8 98.9178 79.2145 98.2656C78.7324 97.7507 78.0435 97.5447 77.3547 97.6477C76.9414 97.7163 76.5626 97.888 76.2182 98.1283C75.8393 98.4029 75.4949 98.7462 75.2538 99.1581C75.0816 99.4671 74.9094 99.776 74.7716 100.085C74.6339 100.463 74.565 100.84 74.5305 101.252C74.4617 101.767 74.3928 102.316 74.3928 102.831C74.3928 103.415 74.3583 104.136 74.3583 104.925C74.3583 105.715 74.3928 107.088 74.4272 107.74C74.4617 108.255 74.5306 108.77 74.6683 109.285C74.7716 109.697 74.9783 110.074 75.2538 110.383C75.4949 110.692 75.8393 110.933 76.2182 111.07C76.597 111.173 76.9759 111.207 77.3547 111.104C77.8713 111.001 78.3191 110.761 78.6979 110.418C79.1112 110.006 79.4556 109.56 79.6967 109.01C79.9722 108.427 80.1444 107.774 80.2478 107.122L81.0399 106.951Z" fill="black"/>
<path d="M89.6157 95.8626L86.6538 96.3432V109.937L85.8616 110.109V96.4805L82.7964 96.9611V95.9312L89.6157 94.9014V95.8626Z" fill="black"/>
<path d="M98.5015 102.831C98.5015 103.655 98.3637 104.479 98.1226 105.269C97.8816 105.955 97.5027 106.607 97.0205 107.157C96.5728 107.637 95.9873 107.981 95.3674 108.118C94.8163 108.255 94.2308 108.152 93.7142 107.878C93.1976 107.534 92.7843 107.054 92.5776 106.47C92.2677 105.715 92.1299 104.925 92.1643 104.102V94.5239L92.8876 94.4209V103.827C92.8532 104.479 92.9565 105.166 93.1976 105.784C93.3353 106.264 93.6453 106.676 94.093 106.951C94.4719 107.191 94.9196 107.26 95.3674 107.157C95.884 107.054 96.3317 106.779 96.6417 106.401C97.055 105.955 97.3305 105.44 97.5027 104.891C97.7094 104.239 97.8127 103.518 97.8127 102.831V93.6657L98.5015 93.5627V102.831Z" fill="black"/>
<path d="M107.146 105.371L106.423 105.509L104.46 99.8103L102.118 100.257V106.47L101.463 106.642V93.1163L104.701 92.6014C105.114 92.5327 105.562 92.6014 105.941 92.8417C106.32 93.082 106.63 93.4596 106.767 93.9059C106.974 94.4895 107.077 95.1417 107.077 95.7596C107.077 96.6178 106.905 97.4417 106.561 98.2312C106.285 98.8491 105.803 99.3641 105.183 99.673L107.146 105.371ZM106.457 95.8969C106.457 95.0387 106.285 94.3865 105.941 93.9745C105.631 93.5969 105.114 93.4253 104.632 93.5283L102.118 93.9059V99.3641L104.632 98.8835C104.873 98.8491 105.149 98.7462 105.355 98.6088C105.596 98.4372 105.803 98.2312 105.941 97.9909C106.113 97.7163 106.251 97.4073 106.32 97.0984C106.423 96.7208 106.457 96.3088 106.457 95.8969Z" fill="black"/>
<path d="M114 103.827L109.281 104.891V91.915L114 91.1941V92.0523L109.901 92.7045V97.8194L113.414 97.1672V98.0254L109.901 98.6776V103.896L114 102.969V103.827Z" fill="black"/>
</svg>
