<svg width="28" height="27" viewBox="0 0 28 27" fill="none" xmlns="http://www.w3.org/2000/svg">
<g clip-path="url(#clip0_17_1550)">
<path d="M8.92523 25.3124C19.2282 25.3124 24.8642 16.8699 24.8642 9.56132C24.8642 9.32507 24.8642 9.08545 24.854 8.8492C25.9513 8.06364 26.8983 7.09108 27.6507 5.97707C26.6257 6.42401 25.5395 6.71857 24.4274 6.8512C25.5989 6.15871 26.4763 5.06915 26.8965 3.78501C25.7959 4.42985 24.5913 4.88252 23.3354 5.1232C22.491 4.23393 21.3737 3.64481 20.1566 3.4471C18.9394 3.24939 17.6903 3.45413 16.6027 4.02959C15.5151 4.60506 14.6497 5.51913 14.1406 6.63024C13.6315 7.74134 13.5071 8.98746 13.7866 10.1756C11.5594 10.0651 9.38051 9.49293 7.3913 8.49608C5.40208 7.49923 3.64696 6.1 2.23976 4.38914C1.52538 5.60934 1.30736 7.05269 1.62999 8.42609C1.95261 9.79948 2.79168 11 3.97682 11.7838C3.08873 11.7539 2.22017 11.5181 1.44118 11.0953V11.1712C1.44272 12.4494 1.89048 13.688 2.70879 14.6774C3.52709 15.6669 4.66575 16.3465 5.9323 16.6016C5.45155 16.7325 4.95495 16.7978 4.4563 16.7956C4.10477 16.7967 3.75394 16.7645 3.40861 16.6994C3.76657 17.7998 4.4636 18.7619 5.40204 19.4509C6.34049 20.1399 7.47336 20.5214 8.64198 20.5419C6.65674 22.0839 4.20445 22.9203 1.68007 22.9162C1.23526 22.9181 0.790764 22.8927 0.349121 22.8403C2.91123 24.4556 5.88673 25.3134 8.92523 25.3124Z" fill="white"/>
</g>
<defs>
<clipPath id="clip0_17_1550">
<rect width="27.3016" height="27" fill="white" transform="translate(0.349121)"/>
</clipPath>
</defs>
</svg>
